<svg width="2379" height="1943" xmlns="http://www.w3.org/2000/svg" xmlns:xlink="http://www.w3.org/1999/xlink" xml:space="preserve" overflow="hidden"><g transform="translate(-3451 -206)"><g><path d="M3906.53 1682.65 3877.97 1688.39 3733.96 1730.01 3797.3 1797.47C3890.68 1883.45 4002.97 1949.23 4127.22 1987.86L4130.79 1988.78 4108.22 1971.5C4028.91 1903.04 3960.74 1806.12 3909.15 1689.37ZM3518.2 1184.15 3520.14 1231.29C3531.19 1365.35 3572.73 1490.77 3637.81 1600.61L3696.84 1685.41 3699.97 1684.2C3750.84 1666.69 3803.56 1651.07 3857.91 1637.49L3886.64 1631.58 3873.65 1598.22C3841.42 1503.62 3819.28 1399.08 3809.52 1288.24L3804.97 1184.15ZM3695.12 635.08 3637.81 717.409C3572.73 827.25 3531.19 952.672 3520.14 1086.73L3518.2 1133.88 3804.97 1133.88 3809.52 1029.79C3819.28 918.942 3841.42 814.399 3873.65 719.8L3886.09 687.851 3844.91 679.384ZM4130.79 329.243 4127.22 330.161C4002.97 368.791 3890.68 434.569 3797.3 520.553L3732.04 590.062 3864.98 628.484 3906 636.727 3909.15 628.652C3960.74 511.899 4028.91 414.979 4108.22 346.523ZM4385.41 235 4482.55 240.17 4514.16 244.993 4528 247.22 4495.6 257.273C4482.98 262.607 4470.99 269.134 4459.77 276.712L4435.27 296.919 4416.97 294.221C4406.53 293.195 4396.01 292.675 4385.41 292.675 4215.9 292.675 4065.19 425.841 3969.44 632.368L3963.37 648.253 4026.25 660.885C4109 674.07 4194.75 682.626 4282.74 686.079L4366.78 687.723 4366.78 742.416 4279.23 740.663C4187.76 736.989 4098.61 727.886 4012.58 713.858L3943.7 699.697 3918.88 764.61C3889.96 858.003 3870.99 961.219 3864.28 1070.43L3862.34 1133.88 4366.78 1133.88 4366.78 1184.15 3862.34 1184.15 3864.28 1247.59C3870.99 1356.8 3889.96 1460.02 3918.88 1553.41L3944.24 1619.74 4025.57 1603.02C4111.6 1588.99 4200.75 1579.89 4292.22 1576.21L4366.78 1574.72 4366.78 1629.4 4295.74 1630.79C4207.75 1634.25 4122 1642.8 4039.25 1655.99L3963.89 1671.13 3969.44 1685.65C4065.19 1892.18 4215.9 2025.35 4385.41 2025.35L4406.01 2024.34 4428.56 2051.65C4438.1 2061.19 4448.55 2069.82 4459.77 2077.39L4462.58 2078.91 4395.94 2082.46 4385.27 2083 4380.29 2082.75 4288.42 2077.86 4254.97 2072.76 4194.2 2062.97 4156.65 2053.32 4103.39 2038.86 4065.34 2024.94 4016.51 2006.02 3979.27 1988.09 3934.05 1964.96 3898.36 1943.3 3856.5 1916.18 3822.89 1891.06 3784.38 1860.18 3753.21 1831.86 3718.19 1797.46 3687.49 1763.69 3676.7 1750.86 3676.28 1751.02 3672.22 1746.56 3665.27 1737.26 3662.73 1734.24 3641.35 1705.66 3592.21 1631.75 3578.7 1609.53 3530.19 1509.22 3521.81 1486.35 3493.61 1399 3485.64 1368.01 3465.78 1253.54 3465.77 1253.48C3462.62 1222.42 3461 1190.9 3461 1159L3462.27 1133.88 3462.27 1133.88 3465.77 1064.54 3465.82 1064.22 3479.36 975.536 3486.52 946.58 3501.2 889.532 3512.77 856.336 3530.86 806.945 3546.27 773.139 3567.93 728.198 3586.83 695.117 3611.99 653.707 3634.08 622.061 3658 590.084 3755.85 483.74 3782.03 459.963 3812.05 435.049 3850 406.684 3882.07 384.604 3923 359.752 3956.75 340.759 4000.72 319.587 4035.67 303.924 4083 286.61 4118.42 274.511 4170.06 261.239 4204.57 252.939 4263.85 243.896 4293.71 239.629Z" stroke="#000000" stroke-width="13.75" stroke-linecap="butt" stroke-linejoin="round" stroke-miterlimit="10" stroke-opacity="1" fill="#000000" fill-rule="evenodd" fill-opacity="1"/><path d="M4491.31 2103.82C4607.43 2136.35 4731.46 2079.67 4768.33 1977.22 4768.39 1977.06 4768.45 1976.9 4768.5 1976.74 4791.26 1981.15 4814.49 1983.37 4837.79 1983.37L4838.16 1983.37C5016.57 1982.97 5161.1 1855.47 5161.57 1698.06L5161.57 1694.83C5338.89 1623.4 5416.99 1438.67 5336.03 1282.23 5317.77 1246.95 5292.19 1214.98 5260.62 1187.98 5265.54 1180.83 5270.1 1173.47 5274.29 1165.92 5356.62 1018.36 5287.82 839.848 5120.61 767.145 5121.38 764.915 5122.11 762.686 5122.77 760.427 5162.69 628.974 5074.27 493.857 4925.28 458.632 4925.24 458.623 4925.19 458.612 4925.14 458.6 4914.95 322.166 4786.59 216.076 4631.62 216 4468.94 215.968 4337.04 332.292 4337 475.819 4337 475.869 4337 475.916 4337 475.966L4337 1918.36C4337.2 2003.23 4399.6 2078.23 4491.31 2103.82ZM4403.5 475.937C4403.41 364.924 4505.34 274.869 4631.16 274.79 4751.19 274.714 4850.71 356.828 4858.64 462.501L4861.77 504.45 4907.82 515.304C5021.32 542.222 5088.72 645.108 5058.5 745.32 5057.97 747.021 5057.44 748.722 5056.84 750.424L5040.81 797.917 5091.18 819.83C5225.33 878.292 5280.54 1021.52 5214.6 1140.02 5211.28 1145.89 5207.56 1152.02 5203.63 1157.62L5176.4 1197.55 5209.02 1225.47C5320.33 1321.56 5328.06 1477.36 5226.67 1581.66 5200.66 1606.89 5169.12 1627.2 5133.94 1641.35L5095.04 1657.02 5095.04 1697.36C5095.28 1822.61 4980.39 1924.32 4838.43 1924.53 4819.74 1924.55 4801.09 1922.79 4782.83 1919.24L4723.49 1907.77 4706.86 1954.12C4691.53 1991.7 4661.11 2023.01 4621.38 2042.13 4543.73 2073.11 4452.31 2042.68 4417.2 1974.17 4408.22 1956.63 4403.54 1937.61 4403.5 1918.36Z" stroke="#0F62FE" stroke-width="13.75" stroke-linecap="butt" stroke-linejoin="miter" stroke-miterlimit="8" stroke-opacity="1" fill="#0F62FE" fill-rule="evenodd" fill-opacity="1"/><path d="M5230.38 415C5239.12 414.968 5247.5 411.909 5253.71 406.487L5410.61 269.394C5422.87 258.491 5424.47 241.409 5414.41 228.883 5402.82 216.283 5381.83 214.339 5367.52 224.544 5366.66 225.16 5365.83 225.815 5365.04 226.505L5208.38 363.451C5195.92 374.556 5194.51 391.997 5205.05 404.549 5211.35 411.137 5220.61 414.956 5230.38 415Z" stroke="#0F62FE" stroke-width="13.75" stroke-linecap="butt" stroke-linejoin="miter" stroke-miterlimit="8" stroke-opacity="1" fill="#0F62FE" fill-rule="evenodd" fill-opacity="1"/><path d="M5413.34 766.496C5416.92 782.307 5434.46 792.578 5452.51 789.434 5454.76 789.043 5456.96 788.448 5459.08 787.657L5684.42 703.714C5700.38 697.646 5709.07 682.408 5705.01 667.58 5699.58 652.178 5680.92 643.55 5663.34 648.308 5662.25 648.603 5661.18 648.947 5660.13 649.338L5434.29 733.339C5419.69 739.098 5411.16 752.597 5413.34 766.496Z" stroke="#0F62FE" stroke-width="13.75" stroke-linecap="butt" stroke-linejoin="miter" stroke-miterlimit="8" stroke-opacity="1" fill="#0F62FE" fill-rule="evenodd" fill-opacity="1"/><path d="M5785.55 1145 5551.18 1145C5533.78 1145.15 5519.01 1156.35 5516.17 1171.55 5514.33 1187.76 5527.68 1202.22 5545.98 1203.85 5547.09 1203.95 5548.2 1204 5549.31 1204L5783.82 1204C5801.23 1203.86 5816 1192.66 5818.83 1177.45 5820.67 1161.24 5807.32 1146.78 5789.02 1145.15 5787.87 1145.04 5786.71 1145 5785.55 1145Z" stroke="#0F62FE" stroke-width="13.75" stroke-linecap="butt" stroke-linejoin="miter" stroke-miterlimit="8" stroke-opacity="1" fill="#0F62FE" fill-rule="evenodd" fill-opacity="1"/><path d="M5735.45 1661.2 5543.39 1584.61C5526.65 1577.92 5506.96 1584.53 5499.42 1599.36 5498.93 1600.31 5498.51 1601.29 5498.14 1602.28 5493.82 1617.09 5502.08 1632.52 5517.76 1638.93L5709.38 1715.37C5726.11 1722.08 5745.81 1715.51 5753.38 1700.69 5754.36 1698.78 5755.1 1696.79 5755.6 1694.75 5757.96 1680.85 5749.78 1667.22 5735.45 1661.2Z" stroke="#0F62FE" stroke-width="13.75" stroke-linecap="butt" stroke-linejoin="miter" stroke-miterlimit="8" stroke-opacity="1" fill="#0F62FE" fill-rule="evenodd" fill-opacity="1"/><path d="M5225.13 1966.4C5215.41 1979.12 5217.43 1996.15 5229.93 2006.82L5377.52 2130.89C5390.84 2142.08 5411.94 2141.64 5424.65 2129.9 5425.14 2129.44 5425.62 2128.97 5426.09 2128.48 5436.69 2115.71 5434.93 2098 5421.95 2087.06L5274.49 1963.11C5261.17 1951.92 5240.07 1952.37 5227.37 1964.1 5226.58 1964.83 5225.83 1965.6 5225.13 1966.4Z" stroke="#0F62FE" stroke-width="13.75" stroke-linecap="butt" stroke-linejoin="miter" stroke-miterlimit="8" stroke-opacity="1" fill="#0F62FE" fill-rule="evenodd" fill-opacity="1"/><path d="M4812.5 624.5C4760.69 701.123 4655.86 706.79 4524.5 709.5" stroke="#0F62FE" stroke-width="68.75" stroke-linecap="round" stroke-linejoin="round" stroke-miterlimit="10" stroke-opacity="1" fill="none" fill-rule="evenodd"/><path d="M4515.48 1593.01C4656.85 1581.92 4754.8 1612.18 4751.8 1757.25" stroke="#0F62FE" stroke-width="68.75" stroke-linecap="round" stroke-linejoin="round" stroke-miterlimit="10" stroke-opacity="1" fill="none" fill-rule="evenodd"/><path d="M4578.56 1176.7C4841.29 1190.96 5037.88 1268.48 5090.72 1504.14" stroke="#0F62FE" stroke-width="68.75" stroke-linecap="round" stroke-linejoin="round" stroke-miterlimit="10" stroke-opacity="1" fill="none" fill-rule="evenodd"/><path d="M5019.5 915.5C4988.36 988.939 4930.73 1021.11 4852.5 1041.5" stroke="#0F62FE" stroke-width="68.75" stroke-linecap="round" stroke-linejoin="round" stroke-miterlimit="10" stroke-opacity="1" fill="none" fill-rule="evenodd"/></g></g></svg>