<svg width="2406" height="1971" xmlns="http://www.w3.org/2000/svg" xmlns:xlink="http://www.w3.org/1999/xlink" xml:space="preserve" overflow="hidden"><g transform="translate(-3437 -2690)"><g><path d="M3906.53 4180.65 3877.97 4186.39 3733.96 4228.01 3797.3 4295.47C3890.68 4381.45 4002.97 4447.23 4127.22 4485.86L4130.79 4486.78 4108.22 4469.5C4028.91 4401.04 3960.74 4304.12 3909.15 4187.37ZM3518.2 3682.15 3520.14 3729.29C3531.19 3863.35 3572.73 3988.77 3637.81 4098.61L3696.84 4183.41 3699.97 4182.2C3750.84 4164.69 3803.56 4149.07 3857.91 4135.49L3886.64 4129.58 3873.65 4096.22C3841.42 4001.62 3819.28 3897.08 3809.52 3786.24L3804.97 3682.15ZM3695.12 3133.08 3637.81 3215.41C3572.73 3325.25 3531.19 3450.67 3520.14 3584.73L3518.2 3631.88 3804.97 3631.88 3809.52 3527.79C3819.28 3416.94 3841.42 3312.4 3873.65 3217.8L3886.09 3185.85 3844.91 3177.38ZM4130.79 2827.24 4127.22 2828.16C4002.97 2866.79 3890.68 2932.57 3797.3 3018.55L3732.04 3088.06 3864.98 3126.48 3906 3134.73 3909.15 3126.65C3960.74 3009.9 4028.91 2912.98 4108.22 2844.52ZM4385.41 2733 4482.55 2738.17 4514.16 2742.99 4528 2745.22 4495.6 2755.27C4482.98 2760.61 4470.99 2767.13 4459.77 2774.71L4435.27 2794.92 4416.97 2792.22C4406.53 2791.2 4396.01 2790.68 4385.41 2790.68 4215.9 2790.68 4065.19 2923.84 3969.44 3130.37L3963.37 3146.25 4026.25 3158.89C4109 3172.07 4194.75 3180.63 4282.74 3184.08L4366.78 3185.72 4366.78 3240.42 4279.23 3238.66C4187.76 3234.99 4098.61 3225.89 4012.58 3211.86L3943.7 3197.7 3918.88 3262.61C3889.96 3356 3870.99 3459.22 3864.28 3568.43L3862.34 3631.88 4366.78 3631.88 4366.78 3682.15 3862.34 3682.15 3864.28 3745.59C3870.99 3854.8 3889.96 3958.02 3918.88 4051.41L3944.24 4117.74 4025.57 4101.02C4111.6 4086.99 4200.75 4077.89 4292.22 4074.21L4366.78 4072.72 4366.78 4127.41 4295.74 4128.79C4207.75 4132.25 4122 4140.8 4039.25 4153.99L3963.89 4169.13 3969.44 4183.65C4065.19 4390.18 4215.9 4523.35 4385.41 4523.35L4406.01 4522.34 4428.56 4549.65C4438.1 4559.19 4448.55 4567.82 4459.77 4575.39L4462.58 4576.91 4395.94 4580.46 4385.27 4581 4380.29 4580.75 4288.42 4575.86 4254.97 4570.76 4194.2 4560.97 4156.65 4551.32 4103.39 4536.86 4065.34 4522.94 4016.51 4504.02 3979.27 4486.09 3934.05 4462.96 3898.36 4441.3 3856.5 4414.18 3822.89 4389.06 3784.38 4358.18 3753.21 4329.86 3718.19 4295.46 3687.49 4261.69 3676.7 4248.86 3676.28 4249.02 3672.22 4244.56 3665.27 4235.26 3662.73 4232.24 3641.35 4203.66 3592.21 4129.75 3578.7 4107.53 3530.19 4007.22 3521.81 3984.35 3493.61 3897 3485.64 3866.01 3465.78 3751.54 3465.77 3751.48C3462.62 3720.42 3461 3688.9 3461 3657L3462.27 3631.88 3462.27 3631.88 3465.77 3562.54 3465.82 3562.22 3479.36 3473.54 3486.52 3444.58 3501.2 3387.53 3512.77 3354.34 3530.86 3304.95 3546.27 3271.14 3567.93 3226.2 3586.83 3193.12 3611.99 3151.71 3634.08 3120.06 3658 3088.08 3755.85 2981.74 3782.03 2957.96 3812.05 2933.05 3850 2904.68 3882.07 2882.6 3923 2857.75 3956.75 2838.76 4000.72 2817.59 4035.67 2801.92 4083 2784.61 4118.42 2772.51 4170.06 2759.24 4204.57 2750.94 4263.85 2741.9 4293.71 2737.63Z" stroke="#000000" stroke-width="45.8333" stroke-linecap="butt" stroke-linejoin="round" stroke-miterlimit="10" stroke-opacity="1" fill="#000000" fill-rule="evenodd" fill-opacity="1"/><path d="M4491.31 4602.82C4607.43 4635.37 4731.46 4578.65 4768.33 4476.15 4768.39 4475.99 4768.45 4475.83 4768.5 4475.67 4791.26 4480.08 4814.49 4482.3 4837.79 4482.3L4838.16 4482.3C5016.57 4481.9 5161.1 4354.33 5161.57 4196.84L5161.57 4193.61C5338.89 4122.14 5416.99 3937.32 5336.03 3780.8 5317.77 3745.49 5292.19 3713.51 5260.62 3686.5 5265.54 3679.33 5270.1 3671.98 5274.29 3664.42 5356.62 3516.78 5287.82 3338.18 5120.61 3265.44 5121.38 3263.2 5122.11 3260.97 5122.77 3258.71 5162.69 3127.19 5074.27 2992 4925.28 2956.76 4925.24 2956.75 4925.19 2956.74 4925.14 2956.73 4914.95 2820.22 4786.59 2714.08 4631.62 2714 4468.94 2713.97 4337.04 2830.35 4337 2973.96 4337 2974.01 4337 2974.05 4337 2974.1L4337 4417.26C4337.2 4502.17 4399.6 4577.21 4491.31 4602.82ZM4403.5 2974.07C4403.41 2863 4505.34 2772.9 4631.16 2772.82 4751.19 2772.74 4850.71 2854.9 4858.64 2960.63L4861.77 3002.6 4907.82 3013.46C5021.32 3040.39 5088.72 3143.33 5058.5 3243.6 5057.97 3245.3 5057.44 3247 5056.84 3248.71L5040.81 3296.22 5091.18 3318.15C5225.33 3376.64 5280.54 3519.95 5214.6 3638.51 5211.28 3644.38 5207.56 3650.51 5203.63 3656.12L5176.4 3696.06 5209.02 3724.01C5320.33 3820.14 5328.06 3976.03 5226.67 4080.38 5200.66 4105.63 5169.12 4125.94 5133.94 4140.11L5095.04 4155.78 5095.04 4196.14C5095.28 4321.45 4980.39 4423.22 4838.43 4423.43 4819.74 4423.46 4801.09 4421.69 4782.83 4418.14L4723.49 4406.67 4706.86 4453.04C4691.53 4490.63 4661.11 4521.96 4621.38 4541.09 4543.73 4572.09 4452.31 4541.64 4417.2 4473.09 4408.22 4455.55 4403.54 4436.52 4403.5 4417.26Z" stroke="#0F62FE" stroke-width="45.8333" stroke-linecap="butt" stroke-linejoin="miter" stroke-miterlimit="8" stroke-opacity="1" fill="#0F62FE" fill-rule="evenodd" fill-opacity="1"/><path d="M5230.38 2914C5239.12 2913.97 5247.5 2910.91 5253.71 2905.49L5410.61 2768.39C5422.87 2757.49 5424.47 2740.41 5414.41 2727.88 5402.82 2715.28 5381.83 2713.34 5367.52 2723.54 5366.66 2724.16 5365.83 2724.81 5365.04 2725.5L5208.38 2862.45C5195.92 2873.56 5194.51 2891 5205.05 2903.55 5211.35 2910.14 5220.61 2913.96 5230.38 2914Z" stroke="#0F62FE" stroke-width="45.8333" stroke-linecap="butt" stroke-linejoin="miter" stroke-miterlimit="8" stroke-opacity="1" fill="#0F62FE" fill-rule="evenodd" fill-opacity="1"/><path d="M5413.34 3265.33C5416.92 3281.25 5434.46 3291.6 5452.51 3288.43 5454.76 3288.04 5456.96 3287.44 5459.08 3286.64L5684.42 3202.11C5700.38 3196 5709.07 3180.66 5705.01 3165.72 5699.58 3150.21 5680.92 3141.53 5663.34 3146.32 5662.25 3146.61 5661.18 3146.96 5660.13 3147.35L5434.29 3231.94C5419.69 3237.74 5411.16 3251.34 5413.34 3265.33Z" stroke="#0F62FE" stroke-width="45.8333" stroke-linecap="butt" stroke-linejoin="miter" stroke-miterlimit="8" stroke-opacity="1" fill="#0F62FE" fill-rule="evenodd" fill-opacity="1"/><path d="M5785.55 3644 5551.18 3644C5533.78 3644.15 5519.01 3655.16 5516.17 3670.1 5514.33 3686.04 5527.68 3700.25 5545.98 3701.85 5547.09 3701.95 5548.2 3702 5549.31 3702L5783.82 3702C5801.23 3701.86 5816 3690.85 5818.83 3675.9 5820.67 3659.96 5807.32 3645.75 5789.02 3644.15 5787.87 3644.04 5786.71 3644 5785.55 3644Z" stroke="#0F62FE" stroke-width="45.8333" stroke-linecap="butt" stroke-linejoin="miter" stroke-miterlimit="8" stroke-opacity="1" fill="#0F62FE" fill-rule="evenodd" fill-opacity="1"/><path d="M5735.45 4159.62 5543.39 4083.59C5526.65 4076.95 5506.96 4083.51 5499.42 4098.24 5498.93 4099.18 5498.51 4100.15 5498.14 4101.13 5493.82 4115.84 5502.08 4131.15 5517.76 4137.51L5709.38 4213.39C5726.11 4220.05 5745.81 4213.53 5753.38 4198.81 5754.36 4196.92 5755.1 4194.95 5755.6 4192.92 5757.96 4179.13 5749.78 4165.6 5735.45 4159.62Z" stroke="#0F62FE" stroke-width="45.8333" stroke-linecap="butt" stroke-linejoin="miter" stroke-miterlimit="8" stroke-opacity="1" fill="#0F62FE" fill-rule="evenodd" fill-opacity="1"/><path d="M5225.13 4465.4C5215.41 4478.12 5217.43 4495.15 5229.93 4505.82L5377.52 4629.89C5390.84 4641.08 5411.94 4640.64 5424.65 4628.9 5425.14 4628.44 5425.62 4627.97 5426.09 4627.48 5436.69 4614.71 5434.93 4597 5421.95 4586.06L5274.49 4462.11C5261.17 4450.92 5240.07 4451.37 5227.37 4463.1 5226.58 4463.83 5225.83 4464.6 5225.13 4465.4Z" stroke="#0F62FE" stroke-width="45.8333" stroke-linecap="butt" stroke-linejoin="miter" stroke-miterlimit="8" stroke-opacity="1" fill="#0F62FE" fill-rule="evenodd" fill-opacity="1"/><path d="M4812.5 3122.5C4760.69 3199.12 4655.86 3204.79 4524.5 3207.5" stroke="#0F62FE" stroke-width="87.0833" stroke-linecap="round" stroke-linejoin="round" stroke-miterlimit="10" stroke-opacity="1" fill="none" fill-rule="evenodd"/><path d="M4515.48 4091.58C4656.85 4080.49 4754.8 4110.75 4751.8 4255.82" stroke="#0F62FE" stroke-width="87.0833" stroke-linecap="round" stroke-linejoin="round" stroke-miterlimit="10" stroke-opacity="1" fill="none" fill-rule="evenodd"/><path d="M4578.56 3675.27C4841.29 3689.53 5037.88 3767.05 5090.72 4002.71" stroke="#0F62FE" stroke-width="87.0833" stroke-linecap="round" stroke-linejoin="round" stroke-miterlimit="10" stroke-opacity="1" fill="none" fill-rule="evenodd"/><path d="M5019.5 3414.5C4988.36 3487.94 4930.73 3520.11 4852.5 3540.5" stroke="#0F62FE" stroke-width="87.0833" stroke-linecap="round" stroke-linejoin="round" stroke-miterlimit="10" stroke-opacity="1" fill="none" fill-rule="evenodd"/></g></g></svg>