<?xml version="1.0" encoding="utf-8" standalone="no"?>
<!DOCTYPE svg PUBLIC "-//W3C//DTD SVG 1.1//EN"
  "http://www.w3.org/Graphics/SVG/1.1/DTD/svg11.dtd">
<svg xmlns:xlink="http://www.w3.org/1999/xlink" width="1298.630209pt" height="871.862641pt" viewBox="0 0 1298.630209 871.862641" xmlns="http://www.w3.org/2000/svg" version="1.1">
 <metadata>
  <rdf:RDF xmlns:dc="http://purl.org/dc/elements/1.1/" xmlns:cc="http://creativecommons.org/ns#" xmlns:rdf="http://www.w3.org/1999/02/22-rdf-syntax-ns#">
   <cc:Work>
    <dc:type rdf:resource="http://purl.org/dc/dcmitype/StillImage"/>
    <dc:date>2025-06-02T10:35:47.225535</dc:date>
    <dc:format>image/svg+xml</dc:format>
    <dc:creator>
     <cc:Agent>
      <dc:title>Matplotlib v3.10.1, https://matplotlib.org/</dc:title>
     </cc:Agent>
    </dc:creator>
   </cc:Work>
  </rdf:RDF>
 </metadata>
 <defs>
  <style type="text/css">*{stroke-linejoin: round; stroke-linecap: butt}</style>
 </defs>
 <g id="figure_1">
  <g id="patch_1">
   <path d="M 0 871.862641 
L 1298.630209 871.862641 
L 1298.630209 -0 
L 0 -0 
L 0 871.862641 
z
" style="fill: none"/>
  </g>
  <g id="axes_1">
   <g id="patch_2">
    <path d="M 773.206209 435.931321 
C 773.206209 392.249436 764.60183 348.992303 747.885496 308.635504 
C 731.169163 268.278705 706.665965 231.607078 675.778208 200.719321 
C 644.890452 169.831564 608.218825 145.328367 567.862026 128.612033 
C 527.505227 111.895699 484.248093 103.291321 440.566209 103.291321 
C 396.884324 103.291321 353.627191 111.895699 313.270392 128.612033 
C 272.913593 145.328367 236.241966 169.831564 205.354209 200.719321 
C 174.466452 231.607078 149.963255 268.278705 133.246921 308.635504 
C 116.530587 348.992303 107.926209 392.249436 107.926209 435.931321 
C 107.926209 479.613205 116.530587 522.870339 133.246921 563.227138 
C 149.963255 603.583937 174.466452 640.255564 205.354209 671.14332 
C 236.241966 702.031077 272.913593 726.534275 313.270392 743.250608 
C 353.627191 759.966942 396.884324 768.571321 440.566209 768.571321 
C 484.248093 768.571321 527.505227 759.966942 567.862026 743.250608 
C 608.218825 726.534275 644.890452 702.031077 675.778208 671.14332 
C 706.665965 640.255564 731.169163 603.583937 747.885496 563.227138 
C 764.60183 522.870339 773.206209 479.613205 773.206209 435.931321 
M 440.566209 435.931321 
C 440.566209 435.931321 440.566209 435.931321 440.566209 435.931321 
C 440.566209 435.931321 440.566209 435.931321 440.566209 435.931321 
C 440.566209 435.931321 440.566209 435.931321 440.566209 435.931321 
C 440.566209 435.931321 440.566209 435.931321 440.566209 435.931321 
C 440.566209 435.931321 440.566209 435.931321 440.566209 435.931321 
C 440.566209 435.931321 440.566209 435.931321 440.566209 435.931321 
C 440.566209 435.931321 440.566209 435.931321 440.566209 435.931321 
C 440.566209 435.931321 440.566209 435.931321 440.566209 435.931321 
C 440.566209 435.931321 440.566209 435.931321 440.566209 435.931321 
C 440.566209 435.931321 440.566209 435.931321 440.566209 435.931321 
C 440.566209 435.931321 440.566209 435.931321 440.566209 435.931321 
C 440.566209 435.931321 440.566209 435.931321 440.566209 435.931321 
C 440.566209 435.931321 440.566209 435.931321 440.566209 435.931321 
C 440.566209 435.931321 440.566209 435.931321 440.566209 435.931321 
C 440.566209 435.931321 440.566209 435.931321 440.566209 435.931321 
C 440.566209 435.931321 440.566209 435.931321 440.566209 435.931321 
L 440.566209 435.931321 
z
" style="fill: none"/>
   </g>
   <g id="patch_3">
    <path d="M 593.827931 435.931321 
L 589.745325 310.755179 
L 471.213847 262.119928 
L 307.864327 206.084919 
L 235.399503 361.256747 
L 269.513211 498.18952 
L 293.743807 690.235179 
L 473.214658 621.089876 
L 631.582505 596.213025 
z
" clip-path="url(#pff3927c7dd)" style="fill: #a56eff; opacity: 0.1; stroke: #a56eff; stroke-linejoin: miter"/>
   </g>
   <g id="patch_4">
    <path d="M 633.097834 435.931321 
L 652.608408 258.00679 
L 481.386842 204.426004 
L 330.888674 245.964258 
L 309.860832 388.358454 
L 292.431842 489.847821 
L 302.9671 674.259969 
L 461.886247 556.843266 
L 653.16954 614.326697 
z
" clip-path="url(#pff3927c7dd)" style="fill: #009d9a; opacity: 0.1; stroke: #009d9a; stroke-linejoin: miter"/>
   </g>
   <g id="patch_5">
    <path d="M 577.717201 435.931321 
L 549.473663 344.547116 
L 469.279545 273.089899 
L 318.669048 224.799246 
L 382.920755 414.950091 
L 247.889982 506.059732 
L 303.634575 673.103868 
L 474.773133 629.928426 
L 570.059458 544.589058 
z
" clip-path="url(#pff3927c7dd)" style="fill: #9f1853; opacity: 0.1; stroke: #9f1853; stroke-linejoin: miter"/>
   </g>
   <g id="patch_6">
    <path d="M 545.495742 435.931321 
L 629.280311 277.581387 
L 482.246532 199.550461 
L 378.866784 329.064782 
L 261.932775 370.914068 
L 379.921222 458.004291 
L 404.726713 498.007148 
L 493.317675 735.099755 
L 540.916962 520.1356 
z
" clip-path="url(#pff3927c7dd)" style="fill: #003a6d; opacity: 0.1; stroke: #003a6d; stroke-linejoin: miter"/>
   </g>
   <g id="patch_7">
    <path d="M 544.89159 435.931321 
L 579.431851 319.409211 
L 479.094336 217.427451 
L 332.946716 249.528892 
L 324.715727 393.765194 
L 238.423591 509.505217 
L 304.787486 671.106966 
L 449.104133 484.352294 
L 622.08421 588.243009 
z
" clip-path="url(#pff3927c7dd)" style="fill: #707070; opacity: 0.1; stroke: #707070; stroke-linejoin: miter"/>
   </g>
   <g id="patch_8">
    <path d="M 723.116535 435.931321 
L 622.404661 283.350742 
L 488.909128 161.765004 
L 307.864327 206.084919 
L 216.994382 354.55783 
L 187.902958 527.893223 
L 295.382155 687.397478 
L 483.54774 679.691696 
L 622.515951 588.605282 
z
" clip-path="url(#pff3927c7dd)" style="fill: #0f62fe; opacity: 0.1; stroke: #0f62fe; stroke-linejoin: miter"/>
   </g>
   <g id="patch_9">
    <path d="M 707.811342 435.931321 
L 606.934449 296.331791 
L 484.252475 188.174194 
L 301.304317 194.722649 
L 160.471039 333.985016 
L 161.795649 537.395507 
L 294.411282 689.079079 
L 488.341033 706.875811 
L 622.947692 588.967556 
z
" clip-path="url(#pff3927c7dd)" style="fill: #0f62fe; opacity: 0.1; stroke: #0f62fe; stroke-linejoin: miter"/>
   </g>
   <g id="matplotlib.axis_1">
    <g id="xtick_1">
     <g id="line2d_1">
      <path d="M 440.566209 435.931321 
L 773.206209 435.931321 
" clip-path="url(#pff3927c7dd)" style="fill: none; stroke: #b0b0b0; stroke-width: 0.8; stroke-linecap: square"/>
     </g>
     <g id="text_1">
      <!-- CTM-SS  -->
      <g transform="translate(793.855159 428.259321) scale(0.28 -0.28)">
       <defs>
        <path id="IBMPlexSans-Regular-43" d="M 2170 -77 
Q 1606 -77 1203 182 
Q 800 442 585 950 
Q 371 1459 371 2208 
Q 371 2957 585 3478 
Q 800 4000 1203 4272 
Q 1606 4544 2170 4544 
Q 2726 4544 3110 4288 
Q 3494 4032 3706 3565 
L 3270 3302 
Q 3136 3648 2861 3856 
Q 2586 4064 2170 4064 
Q 1594 4064 1270 3645 
Q 947 3226 947 2541 
L 947 1875 
Q 947 1190 1270 796 
Q 1594 403 2170 403 
Q 2598 403 2886 624 
Q 3174 845 3309 1210 
L 3738 941 
Q 3526 474 3126 198 
Q 2726 -77 2170 -77 
z
" transform="scale(0.015625)"/>
        <path id="IBMPlexSans-Regular-54" d="M 3520 3994 
L 2099 3994 
L 2099 0 
L 1562 0 
L 1562 3994 
L 141 3994 
L 141 4467 
L 3520 4467 
L 3520 3994 
z
" transform="scale(0.015625)"/>
        <path id="IBMPlexSans-Regular-4d" d="M 595 0 
L 595 4467 
L 1312 4467 
L 2157 2886 
L 2592 2061 
L 2624 2061 
L 3066 2886 
L 3910 4467 
L 4602 4467 
L 4602 0 
L 4077 0 
L 4077 3014 
L 4077 3763 
L 4045 3763 
L 3667 3014 
L 2598 1069 
L 1530 3014 
L 1152 3763 
L 1120 3763 
L 1120 3014 
L 1120 0 
L 595 0 
z
" transform="scale(0.015625)"/>
        <path id="IBMPlexSans-Regular-2d" d="M 2112 1670 
L 442 1670 
L 442 2221 
L 2112 2221 
L 2112 1670 
z
" transform="scale(0.015625)"/>
        <path id="IBMPlexSans-Regular-53" d="M 1850 -77 
Q 1312 -77 925 131 
Q 538 339 269 704 
L 666 1037 
Q 902 723 1190 560 
Q 1478 397 1869 397 
Q 2349 397 2601 627 
Q 2854 858 2854 1242 
Q 2854 1453 2771 1600 
Q 2688 1747 2505 1846 
Q 2323 1946 2029 2010 
L 1664 2093 
Q 1261 2189 979 2342 
Q 698 2496 550 2739 
Q 403 2982 403 3322 
Q 403 3718 588 3990 
Q 774 4262 1110 4403 
Q 1446 4544 1882 4544 
Q 2387 4544 2748 4358 
Q 3110 4173 3360 3814 
L 2957 3520 
Q 2778 3776 2512 3923 
Q 2246 4070 1856 4070 
Q 1427 4070 1180 3884 
Q 934 3699 934 3341 
Q 934 3130 1027 2989 
Q 1120 2848 1305 2755 
Q 1491 2662 1773 2598 
L 2138 2515 
Q 2573 2419 2848 2252 
Q 3123 2086 3254 1843 
Q 3386 1600 3386 1267 
Q 3386 858 3200 557 
Q 3014 256 2672 89 
Q 2330 -77 1850 -77 
z
" transform="scale(0.015625)"/>
        <path id="IBMPlexSans-Regular-20" transform="scale(0.015625)"/>
       </defs>
       <use xlink:href="#IBMPlexSans-Regular-43"/>
       <use xlink:href="#IBMPlexSans-Regular-54" transform="translate(62.099991 0)"/>
       <use xlink:href="#IBMPlexSans-Regular-4d" transform="translate(119.299988 0)"/>
       <use xlink:href="#IBMPlexSans-Regular-2d" transform="translate(200.499969 0)"/>
       <use xlink:href="#IBMPlexSans-Regular-53" transform="translate(240.399963 0)"/>
       <use xlink:href="#IBMPlexSans-Regular-53" transform="translate(298.499954 0)"/>
       <use xlink:href="#IBMPlexSans-Regular-20" transform="translate(356.599945 0)"/>
      </g>
      <!-- (55.8%) -->
      <g transform="translate(795.714534 458.723321) scale(0.28 -0.28)">
       <defs>
        <path id="IBMPlexSans-Regular-28" d="M 531 1997 
Q 531 2618 684 3165 
Q 838 3712 1100 4150 
Q 1363 4589 1690 4864 
L 2176 4864 
Q 1824 4544 1561 4109 
Q 1299 3674 1155 3194 
Q 1011 2714 1011 2266 
L 1011 1715 
Q 1011 1267 1158 784 
Q 1306 301 1568 -134 
Q 1830 -570 2176 -877 
L 1690 -877 
Q 1376 -608 1110 -173 
Q 845 262 688 819 
Q 531 1376 531 1997 
z
" transform="scale(0.015625)"/>
        <path id="IBMPlexSans-Regular-35" d="M 3187 4467 
L 3187 3994 
L 1229 3994 
L 1101 2291 
L 1146 2291 
Q 1254 2445 1376 2553 
Q 1498 2662 1664 2723 
Q 1830 2784 2061 2784 
Q 2445 2784 2745 2617 
Q 3046 2451 3219 2144 
Q 3392 1837 3392 1402 
Q 3392 966 3213 633 
Q 3034 301 2698 112 
Q 2362 -77 1888 -77 
Q 1517 -77 1254 35 
Q 992 147 809 320 
Q 627 493 493 685 
L 896 992 
Q 1069 730 1277 566 
Q 1485 403 1888 403 
Q 2342 403 2582 646 
Q 2822 890 2822 1331 
L 2822 1395 
Q 2822 1837 2582 2080 
Q 2342 2323 1888 2323 
Q 1581 2323 1405 2211 
Q 1229 2099 1088 1946 
L 634 2010 
L 794 4467 
L 3187 4467 
z
" transform="scale(0.015625)"/>
        <path id="IBMPlexSans-Regular-2e" d="M 870 -77 
Q 672 -77 576 28 
Q 480 134 480 294 
L 480 378 
Q 480 544 576 646 
Q 672 749 870 749 
Q 1075 749 1168 646 
Q 1261 544 1261 378 
L 1261 294 
Q 1261 134 1168 28 
Q 1075 -77 870 -77 
z
" transform="scale(0.015625)"/>
        <path id="IBMPlexSans-Regular-38" d="M 1920 -77 
Q 1414 -77 1068 92 
Q 723 262 547 556 
Q 371 851 371 1216 
Q 371 1670 620 1942 
Q 870 2214 1274 2323 
L 1274 2374 
Q 922 2496 714 2768 
Q 506 3040 506 3424 
Q 506 3936 880 4240 
Q 1254 4544 1920 4544 
Q 2586 4544 2960 4240 
Q 3334 3936 3334 3424 
Q 3334 3040 3126 2768 
Q 2918 2496 2566 2374 
L 2566 2323 
Q 2970 2214 3219 1942 
Q 3469 1670 3469 1216 
Q 3469 851 3293 556 
Q 3117 262 2774 92 
Q 2432 -77 1920 -77 
z
M 1920 390 
Q 2387 390 2643 601 
Q 2899 813 2899 1190 
L 2899 1325 
Q 2899 1702 2643 1913 
Q 2387 2125 1920 2125 
Q 1453 2125 1197 1913 
Q 941 1702 941 1325 
L 941 1190 
Q 941 813 1197 601 
Q 1453 390 1920 390 
z
M 1920 2573 
Q 2336 2573 2557 2755 
Q 2778 2938 2778 3277 
L 2778 3373 
Q 2778 3712 2557 3894 
Q 2336 4077 1920 4077 
Q 1504 4077 1283 3894 
Q 1062 3712 1062 3373 
L 1062 3277 
Q 1062 2938 1283 2755 
Q 1504 2573 1920 2573 
z
" transform="scale(0.015625)"/>
        <path id="IBMPlexSans-Regular-25" d="M 1664 0 
L 1171 0 
L 4269 4467 
L 4762 4467 
L 1664 0 
z
M 1427 2010 
Q 1107 2010 880 2157 
Q 653 2304 534 2585 
Q 416 2867 416 3277 
Q 416 3686 534 3968 
Q 653 4250 880 4397 
Q 1107 4544 1427 4544 
Q 1754 4544 1978 4397 
Q 2202 4250 2320 3968 
Q 2438 3686 2438 3277 
Q 2438 2867 2320 2585 
Q 2202 2304 1978 2157 
Q 1754 2010 1427 2010 
z
M 1427 2342 
Q 1613 2342 1734 2425 
Q 1856 2509 1917 2675 
Q 1978 2842 1978 3085 
L 1978 3469 
Q 1978 3712 1917 3878 
Q 1856 4045 1734 4128 
Q 1613 4211 1427 4211 
Q 1242 4211 1120 4128 
Q 998 4045 937 3878 
Q 877 3712 877 3469 
L 877 3085 
Q 877 2842 937 2675 
Q 998 2509 1120 2425 
Q 1242 2342 1427 2342 
z
M 4506 -77 
Q 4186 -77 3958 70 
Q 3731 218 3612 499 
Q 3494 781 3494 1190 
Q 3494 1600 3612 1881 
Q 3731 2163 3958 2310 
Q 4186 2458 4506 2458 
Q 4832 2458 5056 2310 
Q 5280 2163 5398 1881 
Q 5517 1600 5517 1190 
Q 5517 781 5398 499 
Q 5280 218 5056 70 
Q 4832 -77 4506 -77 
z
M 4506 256 
Q 4691 256 4812 339 
Q 4934 422 4995 588 
Q 5056 755 5056 998 
L 5056 1382 
Q 5056 1626 4995 1792 
Q 4934 1958 4812 2041 
Q 4691 2125 4506 2125 
Q 4320 2125 4198 2041 
Q 4077 1958 4016 1792 
Q 3955 1626 3955 1382 
L 3955 998 
Q 3955 755 4016 588 
Q 4077 422 4198 339 
Q 4320 256 4506 256 
z
" transform="scale(0.015625)"/>
        <path id="IBMPlexSans-Regular-29" d="M 1613 1997 
Q 1613 1376 1456 819 
Q 1299 262 1036 -173 
Q 774 -608 454 -877 
L -32 -877 
Q 314 -570 576 -134 
Q 838 301 985 784 
Q 1133 1267 1133 1715 
L 1133 2266 
Q 1133 2714 989 3194 
Q 845 3674 585 4109 
Q 326 4544 -32 4864 
L 454 4864 
Q 781 4589 1043 4150 
Q 1306 3712 1459 3165 
Q 1613 2618 1613 1997 
z
" transform="scale(0.015625)"/>
       </defs>
       <use xlink:href="#IBMPlexSans-Regular-28"/>
       <use xlink:href="#IBMPlexSans-Regular-35" transform="translate(33.499985 0)"/>
       <use xlink:href="#IBMPlexSans-Regular-35" transform="translate(93.499969 0)"/>
       <use xlink:href="#IBMPlexSans-Regular-2e" transform="translate(153.499954 0)"/>
       <use xlink:href="#IBMPlexSans-Regular-38" transform="translate(180.699951 0)"/>
       <use xlink:href="#IBMPlexSans-Regular-25" transform="translate(240.699936 0)"/>
       <use xlink:href="#IBMPlexSans-Regular-29" transform="translate(333.399918 0)"/>
      </g>
     </g>
    </g>
    <g id="xtick_2">
     <g id="line2d_2">
      <path d="M 440.566209 435.931321 
L 695.383232 222.11445 
" clip-path="url(#pff3927c7dd)" style="fill: none; stroke: #b0b0b0; stroke-width: 0.8; stroke-linecap: square"/>
     </g>
     <g id="text_2">
      <!-- SpaceNet7  -->
      <g transform="translate(679.314919 166.956387) scale(0.28 -0.28)">
       <defs>
        <path id="IBMPlexSans-Regular-70" d="M 544 -1280 
L 544 3302 
L 1056 3302 
L 1056 2765 
L 1082 2765 
Q 1210 3078 1459 3228 
Q 1709 3379 2048 3379 
Q 2464 3379 2765 3168 
Q 3066 2957 3229 2569 
Q 3392 2182 3392 1651 
Q 3392 1126 3229 736 
Q 3066 346 2765 134 
Q 2464 -77 2048 -77 
Q 1709 -77 1469 76 
Q 1229 230 1082 538 
L 1056 538 
L 1056 -1280 
L 544 -1280 
z
M 1907 384 
Q 2342 384 2592 656 
Q 2842 928 2842 1370 
L 2842 1933 
Q 2842 2374 2592 2646 
Q 2342 2918 1907 2918 
Q 1677 2918 1481 2835 
Q 1286 2752 1171 2611 
Q 1056 2470 1056 2285 
L 1056 1056 
Q 1056 845 1171 694 
Q 1286 544 1481 464 
Q 1677 384 1907 384 
z
" transform="scale(0.015625)"/>
        <path id="IBMPlexSans-Regular-61" d="M 3232 0 
L 2944 0 
Q 2739 0 2611 86 
Q 2483 173 2425 326 
Q 2368 480 2368 678 
L 2368 723 
L 2566 538 
L 2342 538 
Q 2240 237 1987 80 
Q 1734 -77 1389 -77 
Q 864 -77 573 192 
Q 282 461 282 922 
Q 282 1235 435 1449 
Q 589 1664 899 1776 
Q 1210 1888 1690 1888 
L 2342 1888 
L 2342 2214 
Q 2342 2566 2150 2752 
Q 1958 2938 1562 2938 
Q 1267 2938 1062 2803 
Q 858 2669 723 2445 
L 416 2733 
Q 550 2995 844 3187 
Q 1139 3379 1587 3379 
Q 2182 3379 2518 3084 
Q 2854 2790 2854 2266 
L 2854 448 
L 3232 448 
L 3232 0 
z
M 2342 1504 
L 1664 1504 
Q 1229 1504 1024 1376 
Q 819 1248 819 1005 
L 819 870 
Q 819 627 998 492 
Q 1178 358 1472 358 
Q 1728 358 1923 438 
Q 2118 518 2230 656 
Q 2342 794 2342 960 
L 2342 1504 
z
" transform="scale(0.015625)"/>
        <path id="IBMPlexSans-Regular-63" d="M 1773 -77 
Q 1075 -77 688 390 
Q 301 858 301 1651 
Q 301 2445 688 2912 
Q 1075 3379 1773 3379 
Q 2266 3379 2566 3161 
Q 2867 2944 3008 2605 
L 2579 2387 
Q 2490 2643 2282 2784 
Q 2074 2925 1773 2925 
Q 1318 2925 1084 2646 
Q 851 2368 851 1933 
L 851 1370 
Q 851 941 1084 659 
Q 1318 378 1773 378 
Q 2086 378 2310 525 
Q 2534 672 2669 954 
L 3040 704 
Q 2880 352 2563 137 
Q 2246 -77 1773 -77 
z
" transform="scale(0.015625)"/>
        <path id="IBMPlexSans-Regular-65" d="M 1786 -77 
Q 1338 -77 1005 137 
Q 672 352 486 739 
Q 301 1126 301 1651 
Q 301 2176 486 2563 
Q 672 2950 1005 3164 
Q 1338 3379 1786 3379 
Q 2227 3379 2547 3171 
Q 2867 2963 3040 2598 
Q 3213 2234 3213 1766 
L 3213 1523 
L 838 1523 
L 838 1370 
Q 838 941 1097 656 
Q 1357 371 1818 371 
Q 2131 371 2364 518 
Q 2598 666 2726 941 
L 3091 678 
Q 2931 346 2592 134 
Q 2253 -77 1786 -77 
z
M 1786 2950 
Q 1510 2950 1296 2822 
Q 1082 2694 960 2467 
Q 838 2240 838 1952 
L 838 1907 
L 2662 1907 
L 2662 1978 
Q 2662 2272 2553 2489 
Q 2445 2707 2246 2828 
Q 2048 2950 1786 2950 
z
" transform="scale(0.015625)"/>
        <path id="IBMPlexSans-Regular-4e" d="M 3309 0 
L 1677 2726 
L 1139 3718 
L 1120 3718 
L 1120 2726 
L 1120 0 
L 595 0 
L 595 4467 
L 1216 4467 
L 2848 1741 
L 3386 749 
L 3405 749 
L 3405 1741 
L 3405 4467 
L 3930 4467 
L 3930 0 
L 3309 0 
z
" transform="scale(0.015625)"/>
        <path id="IBMPlexSans-Regular-74" d="M 1914 0 
L 1274 0 
Q 1011 0 870 153 
Q 730 307 730 544 
L 730 2854 
L 186 2854 
L 186 3302 
L 493 3302 
Q 659 3302 720 3369 
Q 781 3437 781 3603 
L 781 4218 
L 1242 4218 
L 1242 3302 
L 1965 3302 
L 1965 2854 
L 1242 2854 
L 1242 448 
L 1914 448 
L 1914 0 
z
" transform="scale(0.015625)"/>
        <path id="IBMPlexSans-Regular-37" d="M 1696 0 
L 1120 0 
L 2829 4006 
L 922 4006 
L 922 3174 
L 442 3174 
L 442 4467 
L 3373 4467 
L 3373 3994 
L 1696 0 
z
" transform="scale(0.015625)"/>
       </defs>
       <use xlink:href="#IBMPlexSans-Regular-53"/>
       <use xlink:href="#IBMPlexSans-Regular-70" transform="translate(58.099991 0)"/>
       <use xlink:href="#IBMPlexSans-Regular-61" transform="translate(116.099976 0)"/>
       <use xlink:href="#IBMPlexSans-Regular-63" transform="translate(169.499969 0)"/>
       <use xlink:href="#IBMPlexSans-Regular-65" transform="translate(219.799957 0)"/>
       <use xlink:href="#IBMPlexSans-Regular-4e" transform="translate(274.699951 0)"/>
       <use xlink:href="#IBMPlexSans-Regular-65" transform="translate(345.399933 0)"/>
       <use xlink:href="#IBMPlexSans-Regular-74" transform="translate(400.299927 0)"/>
       <use xlink:href="#IBMPlexSans-Regular-37" transform="translate(435.399918 0)"/>
       <use xlink:href="#IBMPlexSans-Regular-20" transform="translate(495.399902 0)"/>
      </g>
      <!-- (63.0%) -->
      <g transform="translate(700.608044 197.420387) scale(0.28 -0.28)">
       <defs>
        <path id="IBMPlexSans-Regular-36" d="M 1926 -77 
Q 1466 -77 1130 131 
Q 794 339 611 723 
Q 429 1107 429 1638 
Q 429 2138 573 2573 
Q 717 3008 957 3373 
Q 1197 3738 1475 4016 
Q 1754 4294 2022 4467 
L 2714 4467 
Q 2240 4122 1897 3786 
Q 1555 3450 1331 3059 
Q 1107 2669 986 2150 
L 1018 2138 
Q 1126 2323 1270 2467 
Q 1414 2611 1619 2694 
Q 1824 2778 2093 2778 
Q 2477 2778 2774 2611 
Q 3072 2445 3241 2134 
Q 3411 1824 3411 1402 
Q 3411 966 3225 630 
Q 3040 294 2707 108 
Q 2374 -77 1926 -77 
z
M 1920 390 
Q 2214 390 2422 499 
Q 2630 608 2742 819 
Q 2854 1030 2854 1331 
L 2854 1382 
Q 2854 1683 2742 1894 
Q 2630 2106 2422 2214 
Q 2214 2323 1920 2323 
Q 1626 2323 1418 2214 
Q 1210 2106 1098 1894 
Q 986 1683 986 1382 
L 986 1331 
Q 986 1030 1098 819 
Q 1210 608 1418 499 
Q 1626 390 1920 390 
z
" transform="scale(0.015625)"/>
        <path id="IBMPlexSans-Regular-33" d="M 1184 2573 
L 1670 2573 
Q 2125 2573 2352 2784 
Q 2579 2995 2579 3315 
L 2579 3360 
Q 2579 3712 2358 3888 
Q 2138 4064 1779 4064 
Q 1434 4064 1216 3913 
Q 998 3763 858 3507 
L 461 3814 
Q 576 3994 749 4160 
Q 922 4326 1178 4435 
Q 1434 4544 1792 4544 
Q 2170 4544 2477 4413 
Q 2784 4282 2966 4032 
Q 3149 3782 3149 3418 
Q 3149 2989 2899 2726 
Q 2650 2464 2291 2374 
L 2291 2349 
Q 2534 2304 2748 2166 
Q 2963 2029 3097 1795 
Q 3232 1562 3232 1222 
Q 3232 838 3043 547 
Q 2854 256 2512 89 
Q 2170 -77 1715 -77 
Q 1331 -77 1059 35 
Q 787 147 598 320 
Q 410 493 269 685 
L 672 992 
Q 845 730 1072 566 
Q 1299 403 1709 403 
Q 2182 403 2425 620 
Q 2669 838 2669 1229 
L 2669 1280 
Q 2669 1677 2425 1891 
Q 2182 2106 1709 2106 
L 1184 2106 
L 1184 2573 
z
" transform="scale(0.015625)"/>
        <path id="IBMPlexSans-Regular-30" d="M 1920 -77 
Q 1389 -77 1046 198 
Q 704 474 544 989 
Q 384 1504 384 2234 
Q 384 2963 544 3481 
Q 704 4000 1046 4272 
Q 1389 4544 1920 4544 
Q 2458 4544 2797 4272 
Q 3136 4000 3296 3481 
Q 3456 2963 3456 2234 
Q 3456 1504 3296 989 
Q 3136 474 2797 198 
Q 2458 -77 1920 -77 
z
M 1920 390 
Q 2272 390 2483 579 
Q 2694 768 2793 1104 
Q 2893 1440 2893 1869 
L 2893 2598 
Q 2893 3034 2793 3366 
Q 2694 3699 2483 3888 
Q 2272 4077 1920 4077 
Q 1574 4077 1360 3888 
Q 1146 3699 1046 3366 
Q 947 3034 947 2598 
L 947 1869 
Q 947 1440 1046 1104 
Q 1146 768 1360 579 
Q 1574 390 1920 390 
z
" transform="scale(0.015625)"/>
       </defs>
       <use xlink:href="#IBMPlexSans-Regular-28"/>
       <use xlink:href="#IBMPlexSans-Regular-36" transform="translate(33.499985 0)"/>
       <use xlink:href="#IBMPlexSans-Regular-33" transform="translate(93.499969 0)"/>
       <use xlink:href="#IBMPlexSans-Regular-2e" transform="translate(153.499954 0)"/>
       <use xlink:href="#IBMPlexSans-Regular-30" transform="translate(180.699951 0)"/>
       <use xlink:href="#IBMPlexSans-Regular-25" transform="translate(240.699936 0)"/>
       <use xlink:href="#IBMPlexSans-Regular-29" transform="translate(333.399918 0)"/>
      </g>
     </g>
    </g>
    <g id="xtick_3">
     <g id="line2d_3">
      <path d="M 440.566209 435.931321 
L 498.328538 108.34487 
" clip-path="url(#pff3927c7dd)" style="fill: none; stroke: #b0b0b0; stroke-width: 0.8; stroke-linecap: square"/>
     </g>
     <g id="text_3">
      <!-- AI4Farms  -->
      <g transform="translate(445.398395 27.92) scale(0.28 -0.28)">
       <defs>
        <path id="IBMPlexSans-Regular-41" d="M 3955 0 
L 3392 0 
L 2944 1318 
L 1139 1318 
L 691 0 
L 147 0 
L 1709 4467 
L 2394 4467 
L 3955 0 
z
M 2810 1792 
L 2246 3411 
L 2054 3968 
L 2022 3968 
L 1830 3411 
L 1267 1792 
L 2810 1792 
z
" transform="scale(0.015625)"/>
        <path id="IBMPlexSans-Regular-49" d="M 2176 0 
L 384 0 
L 384 448 
L 1011 448 
L 1011 4019 
L 384 4019 
L 384 4467 
L 2176 4467 
L 2176 4019 
L 1549 4019 
L 1549 448 
L 2176 448 
L 2176 0 
z
" transform="scale(0.015625)"/>
        <path id="IBMPlexSans-Regular-34" d="M 2912 0 
L 2400 0 
L 2400 877 
L 243 877 
L 243 1350 
L 2112 4467 
L 2912 4467 
L 2912 1325 
L 3558 1325 
L 3558 877 
L 2912 877 
L 2912 0 
z
M 2368 4051 
L 749 1325 
L 2400 1325 
L 2400 4051 
L 2368 4051 
z
" transform="scale(0.015625)"/>
        <path id="IBMPlexSans-Regular-46" d="M 1133 0 
L 595 0 
L 595 4467 
L 3258 4467 
L 3258 3994 
L 1133 3994 
L 1133 2496 
L 3072 2496 
L 3072 2022 
L 1133 2022 
L 1133 0 
z
" transform="scale(0.015625)"/>
        <path id="IBMPlexSans-Regular-72" d="M 1056 0 
L 544 0 
L 544 3302 
L 1056 3302 
L 1056 2694 
L 1088 2694 
Q 1146 2854 1267 2992 
Q 1389 3130 1581 3216 
Q 1773 3302 2042 3302 
L 2240 3302 
L 2240 2790 
L 1939 2790 
Q 1664 2790 1465 2716 
Q 1267 2643 1161 2521 
Q 1056 2400 1056 2240 
L 1056 0 
z
" transform="scale(0.015625)"/>
        <path id="IBMPlexSans-Regular-6d" d="M 1056 0 
L 544 0 
L 544 3302 
L 1056 3302 
L 1056 2765 
L 1082 2765 
Q 1190 3021 1388 3200 
Q 1587 3379 1971 3379 
Q 2298 3379 2573 3222 
Q 2848 3066 2982 2707 
L 2995 2707 
Q 3085 2976 3331 3177 
Q 3578 3379 4000 3379 
Q 4506 3379 4790 3049 
Q 5075 2720 5075 2118 
L 5075 0 
L 4563 0 
L 4563 2029 
Q 4563 2464 4390 2691 
Q 4218 2918 3840 2918 
Q 3642 2918 3462 2851 
Q 3283 2784 3174 2643 
Q 3066 2502 3066 2291 
L 3066 0 
L 2554 0 
L 2554 2029 
Q 2554 2470 2381 2694 
Q 2208 2918 1843 2918 
Q 1645 2918 1462 2851 
Q 1280 2784 1168 2643 
Q 1056 2502 1056 2291 
L 1056 0 
z
" transform="scale(0.015625)"/>
        <path id="IBMPlexSans-Regular-73" d="M 1536 -77 
Q 1082 -77 768 99 
Q 454 275 230 570 
L 595 864 
Q 787 627 1024 492 
Q 1261 358 1574 358 
Q 1901 358 2083 499 
Q 2266 640 2266 896 
Q 2266 1088 2141 1229 
Q 2016 1370 1690 1414 
L 1427 1453 
Q 1126 1498 883 1603 
Q 640 1709 502 1904 
Q 365 2099 365 2406 
Q 365 2899 701 3139 
Q 1037 3379 1542 3379 
Q 1811 3379 2019 3315 
Q 2227 3251 2393 3132 
Q 2560 3014 2694 2848 
L 2355 2541 
Q 2246 2694 2035 2819 
Q 1824 2944 1504 2944 
Q 1190 2944 1024 2806 
Q 858 2669 858 2432 
Q 858 2195 1021 2083 
Q 1184 1971 1491 1920 
L 1747 1882 
Q 2298 1798 2528 1564 
Q 2758 1331 2758 954 
Q 2758 634 2611 403 
Q 2464 173 2189 48 
Q 1914 -77 1536 -77 
z
" transform="scale(0.015625)"/>
       </defs>
       <use xlink:href="#IBMPlexSans-Regular-41"/>
       <use xlink:href="#IBMPlexSans-Regular-49" transform="translate(64.099991 0)"/>
       <use xlink:href="#IBMPlexSans-Regular-34" transform="translate(104.099976 0)"/>
       <use xlink:href="#IBMPlexSans-Regular-46" transform="translate(164.09996 0)"/>
       <use xlink:href="#IBMPlexSans-Regular-61" transform="translate(219.999954 0)"/>
       <use xlink:href="#IBMPlexSans-Regular-72" transform="translate(273.399948 0)"/>
       <use xlink:href="#IBMPlexSans-Regular-6d" transform="translate(310.099945 0)"/>
       <use xlink:href="#IBMPlexSans-Regular-73" transform="translate(397.399933 0)"/>
       <use xlink:href="#IBMPlexSans-Regular-20" transform="translate(446.09993 0)"/>
      </g>
      <!-- (28.1%) -->
      <g transform="translate(459.789957 58.384) scale(0.28 -0.28)">
       <defs>
        <path id="IBMPlexSans-Regular-32" d="M 3411 474 
L 3411 0 
L 480 0 
L 480 550 
L 1939 1894 
Q 2253 2182 2464 2508 
Q 2675 2835 2675 3155 
L 2675 3232 
Q 2675 3603 2470 3833 
Q 2266 4064 1850 4064 
Q 1440 4064 1225 3846 
Q 1011 3629 922 3309 
L 442 3494 
Q 531 3757 700 3997 
Q 870 4237 1158 4390 
Q 1446 4544 1875 4544 
Q 2310 4544 2617 4377 
Q 2925 4211 3085 3920 
Q 3245 3629 3245 3245 
Q 3245 2899 3120 2611 
Q 2995 2323 2774 2067 
Q 2554 1811 2266 1555 
L 1062 474 
L 3411 474 
z
" transform="scale(0.015625)"/>
        <path id="IBMPlexSans-Regular-31" d="M 3501 0 
L 563 0 
L 563 474 
L 1811 474 
L 1811 4070 
L 1766 4070 
L 640 3021 
L 326 3360 
L 1510 4467 
L 2349 4467 
L 2349 474 
L 3501 474 
L 3501 0 
z
" transform="scale(0.015625)"/>
       </defs>
       <use xlink:href="#IBMPlexSans-Regular-28"/>
       <use xlink:href="#IBMPlexSans-Regular-32" transform="translate(33.499985 0)"/>
       <use xlink:href="#IBMPlexSans-Regular-38" transform="translate(93.499969 0)"/>
       <use xlink:href="#IBMPlexSans-Regular-2e" transform="translate(153.499954 0)"/>
       <use xlink:href="#IBMPlexSans-Regular-31" transform="translate(180.699951 0)"/>
       <use xlink:href="#IBMPlexSans-Regular-25" transform="translate(240.699936 0)"/>
       <use xlink:href="#IBMPlexSans-Regular-29" transform="translate(333.399918 0)"/>
      </g>
     </g>
    </g>
    <g id="xtick_4">
     <g id="line2d_4">
      <path d="M 440.566209 435.931321 
L 274.246209 147.85663 
" clip-path="url(#pff3927c7dd)" style="fill: none; stroke: #b0b0b0; stroke-width: 0.8; stroke-linecap: square"/>
     </g>
     <g id="text_4">
      <!-- BurnScars  -->
      <g transform="translate(169.213921 76.20683) scale(0.28 -0.28)">
       <defs>
        <path id="IBMPlexSans-Regular-42" d="M 595 0 
L 595 4467 
L 2432 4467 
Q 2982 4467 3302 4153 
Q 3622 3840 3622 3315 
Q 3622 2982 3504 2784 
Q 3386 2586 3216 2490 
Q 3046 2394 2899 2368 
L 2899 2330 
Q 3021 2323 3171 2262 
Q 3322 2202 3459 2080 
Q 3597 1958 3686 1766 
Q 3776 1574 3776 1293 
Q 3776 928 3625 633 
Q 3475 339 3216 169 
Q 2957 0 2624 0 
L 595 0 
z
M 1133 2074 
L 1133 474 
L 2458 474 
Q 2688 474 2854 554 
Q 3021 634 3110 787 
Q 3200 941 3200 1165 
L 3200 1382 
Q 3200 1606 3110 1760 
Q 3021 1914 2854 1994 
Q 2688 2074 2458 2074 
L 1133 2074 
z
M 1133 3994 
L 1133 2534 
L 2368 2534 
Q 2579 2534 2729 2608 
Q 2880 2682 2963 2819 
Q 3046 2957 3046 3155 
L 3046 3373 
Q 3046 3571 2963 3708 
Q 2880 3846 2729 3920 
Q 2579 3994 2368 3994 
L 1133 3994 
z
" transform="scale(0.015625)"/>
        <path id="IBMPlexSans-Regular-75" d="M 2579 0 
L 2579 538 
L 2554 538 
Q 2458 301 2250 112 
Q 2042 -77 1626 -77 
Q 1120 -77 816 252 
Q 512 582 512 1184 
L 512 3302 
L 1024 3302 
L 1024 1274 
Q 1024 832 1216 608 
Q 1408 384 1779 384 
Q 1984 384 2166 451 
Q 2349 518 2464 659 
Q 2579 800 2579 1018 
L 2579 3302 
L 3091 3302 
L 3091 0 
L 2579 0 
z
" transform="scale(0.015625)"/>
        <path id="IBMPlexSans-Regular-6e" d="M 1056 0 
L 544 0 
L 544 3302 
L 1056 3302 
L 1056 2765 
L 1082 2765 
Q 1203 3046 1424 3212 
Q 1645 3379 2016 3379 
Q 2528 3379 2825 3049 
Q 3123 2720 3123 2118 
L 3123 0 
L 2611 0 
L 2611 2029 
Q 2611 2470 2422 2694 
Q 2234 2918 1862 2918 
Q 1658 2918 1472 2851 
Q 1286 2784 1171 2643 
Q 1056 2502 1056 2291 
L 1056 0 
z
" transform="scale(0.015625)"/>
       </defs>
       <use xlink:href="#IBMPlexSans-Regular-42"/>
       <use xlink:href="#IBMPlexSans-Regular-75" transform="translate(65.299988 0)"/>
       <use xlink:href="#IBMPlexSans-Regular-72" transform="translate(122.099976 0)"/>
       <use xlink:href="#IBMPlexSans-Regular-6e" transform="translate(158.799973 0)"/>
       <use xlink:href="#IBMPlexSans-Regular-53" transform="translate(215.59996 0)"/>
       <use xlink:href="#IBMPlexSans-Regular-63" transform="translate(273.699951 0)"/>
       <use xlink:href="#IBMPlexSans-Regular-61" transform="translate(323.999939 0)"/>
       <use xlink:href="#IBMPlexSans-Regular-72" transform="translate(377.399933 0)"/>
       <use xlink:href="#IBMPlexSans-Regular-73" transform="translate(414.09993 0)"/>
       <use xlink:href="#IBMPlexSans-Regular-20" transform="translate(462.799927 0)"/>
      </g>
      <!-- (83.6%) -->
      <g transform="translate(185.941734 106.67083) scale(0.28 -0.28)">
       <use xlink:href="#IBMPlexSans-Regular-28"/>
       <use xlink:href="#IBMPlexSans-Regular-38" transform="translate(33.499985 0)"/>
       <use xlink:href="#IBMPlexSans-Regular-33" transform="translate(93.499969 0)"/>
       <use xlink:href="#IBMPlexSans-Regular-2e" transform="translate(153.499954 0)"/>
       <use xlink:href="#IBMPlexSans-Regular-36" transform="translate(180.699951 0)"/>
       <use xlink:href="#IBMPlexSans-Regular-25" transform="translate(240.699936 0)"/>
       <use xlink:href="#IBMPlexSans-Regular-29" transform="translate(333.399918 0)"/>
      </g>
     </g>
    </g>
    <g id="xtick_5">
     <g id="line2d_5">
      <path d="M 440.566209 435.931321 
L 127.986855 322.16174 
" clip-path="url(#pff3927c7dd)" style="fill: none; stroke: #b0b0b0; stroke-width: 0.8; stroke-linecap: square"/>
     </g>
     <g id="text_5">
      <!-- MADOS  -->
      <g transform="translate(7.484375 289.222934) scale(0.28 -0.28)">
       <defs>
        <path id="IBMPlexSans-Regular-44" d="M 595 0 
L 595 4467 
L 2093 4467 
Q 2650 4467 3062 4220 
Q 3475 3974 3699 3478 
Q 3923 2982 3923 2234 
Q 3923 1485 3699 989 
Q 3475 493 3062 246 
Q 2650 0 2093 0 
L 595 0 
z
M 1133 474 
L 2093 474 
Q 2464 474 2745 640 
Q 3027 806 3187 1116 
Q 3347 1427 3347 1869 
L 3347 2598 
Q 3347 3040 3187 3353 
Q 3027 3667 2745 3830 
Q 2464 3994 2093 3994 
L 1133 3994 
L 1133 474 
z
" transform="scale(0.015625)"/>
        <path id="IBMPlexSans-Regular-4f" d="M 2266 -77 
Q 1690 -77 1264 188 
Q 838 454 604 969 
Q 371 1485 371 2234 
Q 371 2982 604 3497 
Q 838 4013 1264 4278 
Q 1690 4544 2266 4544 
Q 2842 4544 3267 4278 
Q 3693 4013 3926 3497 
Q 4160 2982 4160 2234 
Q 4160 1485 3926 969 
Q 3693 454 3267 188 
Q 2842 -77 2266 -77 
z
M 2266 403 
Q 2656 403 2950 585 
Q 3245 768 3414 1094 
Q 3584 1421 3584 1862 
L 3584 2605 
Q 3584 3046 3414 3376 
Q 3245 3706 2950 3885 
Q 2656 4064 2266 4064 
Q 1882 4064 1584 3885 
Q 1286 3706 1116 3376 
Q 947 3046 947 2605 
L 947 1862 
Q 947 1421 1116 1094 
Q 1286 768 1584 585 
Q 1882 403 2266 403 
z
" transform="scale(0.015625)"/>
       </defs>
       <use xlink:href="#IBMPlexSans-Regular-4d"/>
       <use xlink:href="#IBMPlexSans-Regular-41" transform="translate(81.199982 0)"/>
       <use xlink:href="#IBMPlexSans-Regular-44" transform="translate(145.299973 0)"/>
       <use xlink:href="#IBMPlexSans-Regular-4f" transform="translate(212.399963 0)"/>
       <use xlink:href="#IBMPlexSans-Regular-53" transform="translate(283.199951 0)"/>
       <use xlink:href="#IBMPlexSans-Regular-20" transform="translate(341.299942 0)"/>
      </g>
      <!-- (75.6%) -->
      <g transform="translate(7.2 319.686934) scale(0.28 -0.28)">
       <use xlink:href="#IBMPlexSans-Regular-28"/>
       <use xlink:href="#IBMPlexSans-Regular-37" transform="translate(33.499985 0)"/>
       <use xlink:href="#IBMPlexSans-Regular-35" transform="translate(93.499969 0)"/>
       <use xlink:href="#IBMPlexSans-Regular-2e" transform="translate(153.499954 0)"/>
       <use xlink:href="#IBMPlexSans-Regular-36" transform="translate(180.699951 0)"/>
       <use xlink:href="#IBMPlexSans-Regular-25" transform="translate(240.699936 0)"/>
       <use xlink:href="#IBMPlexSans-Regular-29" transform="translate(333.399918 0)"/>
      </g>
     </g>
    </g>
    <g id="xtick_6">
     <g id="line2d_6">
      <path d="M 440.566209 435.931321 
L 127.986855 549.700901 
" clip-path="url(#pff3927c7dd)" style="fill: none; stroke: #b0b0b0; stroke-width: 0.8; stroke-linecap: square"/>
     </g>
     <g id="text_6">
      <!-- PASTIS  -->
      <g transform="translate(7.932813 567.295708) scale(0.28 -0.28)">
       <defs>
        <path id="IBMPlexSans-Regular-50" d="M 1133 0 
L 595 0 
L 595 4467 
L 2374 4467 
Q 2778 4467 3056 4310 
Q 3334 4154 3478 3869 
Q 3622 3584 3622 3187 
Q 3622 2797 3478 2509 
Q 3334 2221 3056 2064 
Q 2778 1907 2374 1907 
L 1133 1907 
L 1133 0 
z
M 1133 3994 
L 1133 2381 
L 2374 2381 
Q 2586 2381 2736 2454 
Q 2886 2528 2966 2672 
Q 3046 2816 3046 3021 
L 3046 3354 
Q 3046 3558 2966 3702 
Q 2886 3846 2736 3920 
Q 2586 3994 2374 3994 
L 1133 3994 
z
" transform="scale(0.015625)"/>
       </defs>
       <use xlink:href="#IBMPlexSans-Regular-50"/>
       <use xlink:href="#IBMPlexSans-Regular-41" transform="translate(60.599991 0)"/>
       <use xlink:href="#IBMPlexSans-Regular-53" transform="translate(124.699982 0)"/>
       <use xlink:href="#IBMPlexSans-Regular-54" transform="translate(182.799973 0)"/>
       <use xlink:href="#IBMPlexSans-Regular-49" transform="translate(239.999969 0)"/>
       <use xlink:href="#IBMPlexSans-Regular-53" transform="translate(279.999954 0)"/>
       <use xlink:href="#IBMPlexSans-Regular-20" transform="translate(338.099945 0)"/>
      </g>
      <!-- (43.1%) -->
      <g transform="translate(7.2 597.759708) scale(0.28 -0.28)">
       <use xlink:href="#IBMPlexSans-Regular-28"/>
       <use xlink:href="#IBMPlexSans-Regular-34" transform="translate(33.499985 0)"/>
       <use xlink:href="#IBMPlexSans-Regular-33" transform="translate(93.499969 0)"/>
       <use xlink:href="#IBMPlexSans-Regular-2e" transform="translate(153.499954 0)"/>
       <use xlink:href="#IBMPlexSans-Regular-31" transform="translate(180.699951 0)"/>
       <use xlink:href="#IBMPlexSans-Regular-25" transform="translate(240.699936 0)"/>
       <use xlink:href="#IBMPlexSans-Regular-29" transform="translate(333.399918 0)"/>
      </g>
     </g>
    </g>
    <g id="xtick_7">
     <g id="line2d_7">
      <path d="M 440.566209 435.931321 
L 274.246209 724.006011 
" clip-path="url(#pff3927c7dd)" style="fill: none; stroke: #b0b0b0; stroke-width: 0.8; stroke-linecap: square"/>
     </g>
     <g id="text_7">
      <!-- Sen1Floods11  -->
      <g transform="translate(142.780171 780.311811) scale(0.28 -0.28)">
       <defs>
        <path id="IBMPlexSans-Regular-6c" d="M 1542 0 
L 1088 0 
Q 826 0 685 150 
Q 544 301 544 531 
L 544 4736 
L 1056 4736 
L 1056 448 
L 1542 448 
L 1542 0 
z
" transform="scale(0.015625)"/>
        <path id="IBMPlexSans-Regular-6f" d="M 1792 -77 
Q 1350 -77 1014 137 
Q 678 352 489 739 
Q 301 1126 301 1651 
Q 301 2176 489 2563 
Q 678 2950 1014 3164 
Q 1350 3379 1792 3379 
Q 2234 3379 2570 3164 
Q 2906 2950 3094 2563 
Q 3283 2176 3283 1651 
Q 3283 1126 3094 739 
Q 2906 352 2570 137 
Q 2234 -77 1792 -77 
z
M 1792 378 
Q 2208 378 2470 634 
Q 2733 890 2733 1414 
L 2733 1888 
Q 2733 2413 2470 2669 
Q 2208 2925 1792 2925 
Q 1382 2925 1116 2669 
Q 851 2413 851 1888 
L 851 1414 
Q 851 890 1116 634 
Q 1382 378 1792 378 
z
" transform="scale(0.015625)"/>
        <path id="IBMPlexSans-Regular-64" d="M 2656 0 
L 2656 538 
L 2630 538 
Q 2483 230 2243 76 
Q 2003 -77 1664 -77 
Q 1254 -77 950 134 
Q 646 346 483 736 
Q 320 1126 320 1651 
Q 320 2182 483 2569 
Q 646 2957 950 3168 
Q 1254 3379 1664 3379 
Q 2003 3379 2252 3228 
Q 2502 3078 2630 2765 
L 2656 2765 
L 2656 4736 
L 3168 4736 
L 3168 0 
L 2656 0 
z
M 1805 384 
Q 2042 384 2234 464 
Q 2426 544 2541 694 
Q 2656 845 2656 1056 
L 2656 2285 
Q 2656 2470 2541 2611 
Q 2426 2752 2234 2835 
Q 2042 2918 1805 2918 
Q 1376 2918 1123 2646 
Q 870 2374 870 1933 
L 870 1370 
Q 870 928 1123 656 
Q 1376 384 1805 384 
z
" transform="scale(0.015625)"/>
       </defs>
       <use xlink:href="#IBMPlexSans-Regular-53"/>
       <use xlink:href="#IBMPlexSans-Regular-65" transform="translate(58.099991 0)"/>
       <use xlink:href="#IBMPlexSans-Regular-6e" transform="translate(112.999985 0)"/>
       <use xlink:href="#IBMPlexSans-Regular-31" transform="translate(169.799973 0)"/>
       <use xlink:href="#IBMPlexSans-Regular-46" transform="translate(229.799957 0)"/>
       <use xlink:href="#IBMPlexSans-Regular-6c" transform="translate(285.699951 0)"/>
       <use xlink:href="#IBMPlexSans-Regular-6f" transform="translate(312.899948 0)"/>
       <use xlink:href="#IBMPlexSans-Regular-6f" transform="translate(368.899933 0)"/>
       <use xlink:href="#IBMPlexSans-Regular-64" transform="translate(424.899918 0)"/>
       <use xlink:href="#IBMPlexSans-Regular-73" transform="translate(482.899902 0)"/>
       <use xlink:href="#IBMPlexSans-Regular-31" transform="translate(531.599899 0)"/>
       <use xlink:href="#IBMPlexSans-Regular-31" transform="translate(591.599884 0)"/>
       <use xlink:href="#IBMPlexSans-Regular-20" transform="translate(651.599869 0)"/>
      </g>
      <!-- (90.9%) -->
      <g transform="translate(185.941734 810.775811) scale(0.28 -0.28)">
       <defs>
        <path id="IBMPlexSans-Regular-39" d="M 3411 2829 
Q 3411 2330 3267 1894 
Q 3123 1459 2883 1094 
Q 2643 730 2364 451 
Q 2086 173 1818 0 
L 1126 0 
Q 1606 352 1945 685 
Q 2285 1018 2509 1408 
Q 2733 1798 2854 2317 
L 2822 2330 
Q 2720 2150 2573 2003 
Q 2426 1856 2224 1773 
Q 2022 1690 1747 1690 
Q 1363 1690 1065 1856 
Q 768 2022 598 2332 
Q 429 2643 429 3066 
Q 429 3507 614 3840 
Q 800 4173 1133 4358 
Q 1466 4544 1914 4544 
Q 2381 4544 2713 4336 
Q 3046 4128 3228 3744 
Q 3411 3360 3411 2829 
z
M 1920 2144 
Q 2214 2144 2422 2253 
Q 2630 2362 2742 2573 
Q 2854 2784 2854 3085 
L 2854 3136 
Q 2854 3437 2742 3648 
Q 2630 3859 2422 3968 
Q 2214 4077 1920 4077 
Q 1626 4077 1418 3968 
Q 1210 3859 1098 3648 
Q 986 3437 986 3136 
L 986 3085 
Q 986 2784 1098 2573 
Q 1210 2362 1418 2253 
Q 1626 2144 1920 2144 
z
" transform="scale(0.015625)"/>
       </defs>
       <use xlink:href="#IBMPlexSans-Regular-28"/>
       <use xlink:href="#IBMPlexSans-Regular-39" transform="translate(33.499985 0)"/>
       <use xlink:href="#IBMPlexSans-Regular-30" transform="translate(93.499969 0)"/>
       <use xlink:href="#IBMPlexSans-Regular-2e" transform="translate(153.499954 0)"/>
       <use xlink:href="#IBMPlexSans-Regular-39" transform="translate(180.699951 0)"/>
       <use xlink:href="#IBMPlexSans-Regular-25" transform="translate(240.699936 0)"/>
       <use xlink:href="#IBMPlexSans-Regular-29" transform="translate(333.399918 0)"/>
      </g>
     </g>
    </g>
    <g id="xtick_8">
     <g id="line2d_8">
      <path d="M 440.566209 435.931321 
L 498.328538 763.517772 
" clip-path="url(#pff3927c7dd)" style="fill: none; stroke: #b0b0b0; stroke-width: 0.8; stroke-linecap: square"/>
     </g>
     <g id="text_8">
      <!-- FiveBillionPixels  -->
      <g transform="translate(405.006207 828.598641) scale(0.28 -0.28)">
       <defs>
        <path id="IBMPlexSans-Regular-69" d="M 800 4077 
Q 640 4077 563 4157 
Q 486 4237 486 4365 
L 486 4448 
Q 486 4576 563 4656 
Q 640 4736 800 4736 
Q 966 4736 1040 4656 
Q 1114 4576 1114 4448 
L 1114 4365 
Q 1114 4237 1040 4157 
Q 966 4077 800 4077 
z
M 544 0 
L 544 3302 
L 1056 3302 
L 1056 0 
L 544 0 
z
" transform="scale(0.015625)"/>
        <path id="IBMPlexSans-Regular-76" d="M 1869 0 
L 1274 0 
L 115 3302 
L 627 3302 
L 1203 1664 
L 1562 538 
L 1594 538 
L 1952 1664 
L 2541 3302 
L 3034 3302 
L 1869 0 
z
" transform="scale(0.015625)"/>
        <path id="IBMPlexSans-Regular-78" d="M 134 0 
L 1357 1664 
L 186 3302 
L 787 3302 
L 1626 2074 
L 1645 2074 
L 2515 3302 
L 3085 3302 
L 1920 1702 
L 3110 0 
L 2509 0 
L 1651 1293 
L 1632 1293 
L 704 0 
L 134 0 
z
" transform="scale(0.015625)"/>
       </defs>
       <use xlink:href="#IBMPlexSans-Regular-46"/>
       <use xlink:href="#IBMPlexSans-Regular-69" transform="translate(55.899994 0)"/>
       <use xlink:href="#IBMPlexSans-Regular-76" transform="translate(80.899979 0)"/>
       <use xlink:href="#IBMPlexSans-Regular-65" transform="translate(130.099976 0)"/>
       <use xlink:href="#IBMPlexSans-Regular-42" transform="translate(184.999969 0)"/>
       <use xlink:href="#IBMPlexSans-Regular-69" transform="translate(250.299957 0)"/>
       <use xlink:href="#IBMPlexSans-Regular-6c" transform="translate(275.299942 0)"/>
       <use xlink:href="#IBMPlexSans-Regular-6c" transform="translate(302.499939 0)"/>
       <use xlink:href="#IBMPlexSans-Regular-69" transform="translate(329.699936 0)"/>
       <use xlink:href="#IBMPlexSans-Regular-6f" transform="translate(354.699921 0)"/>
       <use xlink:href="#IBMPlexSans-Regular-6e" transform="translate(410.699905 0)"/>
       <use xlink:href="#IBMPlexSans-Regular-50" transform="translate(467.499893 0)"/>
       <use xlink:href="#IBMPlexSans-Regular-69" transform="translate(528.099884 0)"/>
       <use xlink:href="#IBMPlexSans-Regular-78" transform="translate(553.099869 0)"/>
       <use xlink:href="#IBMPlexSans-Regular-65" transform="translate(603.799866 0)"/>
       <use xlink:href="#IBMPlexSans-Regular-6c" transform="translate(658.69986 0)"/>
       <use xlink:href="#IBMPlexSans-Regular-73" transform="translate(685.899857 0)"/>
       <use xlink:href="#IBMPlexSans-Regular-20" transform="translate(734.599854 0)"/>
      </g>
      <!-- (69.2%) -->
      <g transform="translate(459.789957 859.062641) scale(0.28 -0.28)">
       <use xlink:href="#IBMPlexSans-Regular-28"/>
       <use xlink:href="#IBMPlexSans-Regular-36" transform="translate(33.499985 0)"/>
       <use xlink:href="#IBMPlexSans-Regular-39" transform="translate(93.499969 0)"/>
       <use xlink:href="#IBMPlexSans-Regular-2e" transform="translate(153.499954 0)"/>
       <use xlink:href="#IBMPlexSans-Regular-32" transform="translate(180.699951 0)"/>
       <use xlink:href="#IBMPlexSans-Regular-25" transform="translate(240.699936 0)"/>
       <use xlink:href="#IBMPlexSans-Regular-29" transform="translate(333.399918 0)"/>
      </g>
     </g>
    </g>
    <g id="xtick_9">
     <g id="line2d_9">
      <path d="M 440.566209 435.931321 
L 695.383232 649.748191 
" clip-path="url(#pff3927c7dd)" style="fill: none; stroke: #b0b0b0; stroke-width: 0.8; stroke-linecap: square"/>
     </g>
     <g id="text_9">
      <!-- Dynamic -->
      <g transform="translate(697.403356 674.330254) scale(0.28 -0.28)">
       <defs>
        <path id="IBMPlexSans-Regular-79" d="M 1779 1056 
L 2579 3302 
L 3085 3302 
L 1606 -768 
Q 1536 -966 1449 -1078 
Q 1363 -1190 1222 -1235 
Q 1082 -1280 838 -1280 
L 576 -1280 
L 576 -832 
L 1094 -832 
L 1344 -128 
L 109 3302 
L 621 3302 
L 1414 1056 
L 1568 518 
L 1600 518 
L 1779 1056 
z
" transform="scale(0.015625)"/>
       </defs>
       <use xlink:href="#IBMPlexSans-Regular-44"/>
       <use xlink:href="#IBMPlexSans-Regular-79" transform="translate(67.099991 0)"/>
       <use xlink:href="#IBMPlexSans-Regular-6e" transform="translate(116.999985 0)"/>
       <use xlink:href="#IBMPlexSans-Regular-61" transform="translate(173.799973 0)"/>
       <use xlink:href="#IBMPlexSans-Regular-6d" transform="translate(227.199966 0)"/>
       <use xlink:href="#IBMPlexSans-Regular-69" transform="translate(314.499954 0)"/>
       <use xlink:href="#IBMPlexSans-Regular-63" transform="translate(339.499939 0)"/>
      </g>
      <!-- EarthNet -->
      <g transform="translate(695.834919 704.794254) scale(0.28 -0.28)">
       <defs>
        <path id="IBMPlexSans-Regular-45" d="M 3322 0 
L 595 0 
L 595 4467 
L 3322 4467 
L 3322 3994 
L 1133 3994 
L 1133 2496 
L 3194 2496 
L 3194 2022 
L 1133 2022 
L 1133 474 
L 3322 474 
L 3322 0 
z
" transform="scale(0.015625)"/>
        <path id="IBMPlexSans-Regular-68" d="M 544 0 
L 544 4736 
L 1056 4736 
L 1056 2765 
L 1082 2765 
Q 1203 3046 1424 3212 
Q 1645 3379 2016 3379 
Q 2528 3379 2825 3049 
Q 3123 2720 3123 2118 
L 3123 0 
L 2611 0 
L 2611 2029 
Q 2611 2470 2422 2694 
Q 2234 2918 1862 2918 
Q 1658 2918 1472 2851 
Q 1286 2784 1171 2643 
Q 1056 2502 1056 2291 
L 1056 0 
L 544 0 
z
" transform="scale(0.015625)"/>
       </defs>
       <use xlink:href="#IBMPlexSans-Regular-45"/>
       <use xlink:href="#IBMPlexSans-Regular-61" transform="translate(58.299988 0)"/>
       <use xlink:href="#IBMPlexSans-Regular-72" transform="translate(111.699982 0)"/>
       <use xlink:href="#IBMPlexSans-Regular-74" transform="translate(148.399979 0)"/>
       <use xlink:href="#IBMPlexSans-Regular-68" transform="translate(183.499969 0)"/>
       <use xlink:href="#IBMPlexSans-Regular-4e" transform="translate(240.299957 0)"/>
       <use xlink:href="#IBMPlexSans-Regular-65" transform="translate(310.999939 0)"/>
       <use xlink:href="#IBMPlexSans-Regular-74" transform="translate(365.899933 0)"/>
      </g>
      <!-- (39.3%) -->
      <g transform="translate(700.608044 735.258254) scale(0.28 -0.28)">
       <use xlink:href="#IBMPlexSans-Regular-28"/>
       <use xlink:href="#IBMPlexSans-Regular-33" transform="translate(33.499985 0)"/>
       <use xlink:href="#IBMPlexSans-Regular-39" transform="translate(93.499969 0)"/>
       <use xlink:href="#IBMPlexSans-Regular-2e" transform="translate(153.499954 0)"/>
       <use xlink:href="#IBMPlexSans-Regular-33" transform="translate(180.699951 0)"/>
       <use xlink:href="#IBMPlexSans-Regular-25" transform="translate(240.699936 0)"/>
       <use xlink:href="#IBMPlexSans-Regular-29" transform="translate(333.399918 0)"/>
      </g>
     </g>
    </g>
   </g>
   <g id="matplotlib.axis_2">
    <g id="ytick_1">
     <g id="line2d_10">
      <path d="M 507.094209 435.931321 
C 507.094209 427.194944 505.373333 418.543517 502.030066 410.472157 
C 498.6868 402.400797 493.78616 395.066472 487.608609 388.888921 
C 481.431057 382.711369 474.096732 377.81073 466.025372 374.467463 
C 457.954012 371.124196 449.302586 369.403321 440.566209 369.403321 
C 431.829832 369.403321 423.178405 371.124196 415.107045 374.467463 
C 407.035685 377.81073 399.70136 382.711369 393.523809 388.888921 
C 387.346257 395.066472 382.445618 402.400797 379.102351 410.472157 
C 375.759084 418.543517 374.038209 427.194944 374.038209 435.931321 
C 374.038209 444.667698 375.759084 453.319124 379.102351 461.390484 
C 382.445618 469.461844 387.346257 476.796169 393.523809 482.973721 
C 399.70136 489.151272 407.035685 494.051912 415.107045 497.395178 
C 423.178405 500.738445 431.829832 502.459321 440.566209 502.459321 
C 449.302586 502.459321 457.954012 500.738445 466.025372 497.395178 
C 474.096732 494.051912 481.431057 489.151272 487.608609 482.973721 
C 493.78616 476.796169 498.6868 469.461844 502.030066 461.390484 
C 505.373333 453.319124 507.094209 444.667698 507.094209 435.931321 
" clip-path="url(#pff3927c7dd)" style="fill: none; stroke: #b0b0b0; stroke-width: 0.8; stroke-linecap: square"/>
     </g>
    </g>
    <g id="ytick_2">
     <g id="line2d_11">
      <path d="M 573.622209 435.931321 
C 573.622209 418.458567 570.180457 401.155714 563.493924 385.012994 
C 556.80739 368.870274 547.006111 354.201624 534.651009 341.846521 
C 522.295906 329.491418 507.627255 319.690139 491.484535 313.003606 
C 475.341816 306.317072 458.038963 302.875321 440.566209 302.875321 
C 423.093455 302.875321 405.790602 306.317072 389.647882 313.003606 
C 373.505162 319.690139 358.836512 329.491418 346.481409 341.846521 
C 334.126306 354.201624 324.325027 368.870274 317.638494 385.012994 
C 310.95196 401.155714 307.510209 418.458567 307.510209 435.931321 
C 307.510209 453.404075 310.95196 470.706928 317.638494 486.849647 
C 324.325027 502.992367 334.126306 517.661018 346.481409 530.016121 
C 358.836512 542.371223 373.505162 552.172502 389.647882 558.859036 
C 405.790602 565.545569 423.093455 568.987321 440.566209 568.987321 
C 458.038963 568.987321 475.341816 565.545569 491.484535 558.859036 
C 507.627255 552.172502 522.295906 542.371223 534.651009 530.016121 
C 547.006111 517.661018 556.80739 502.992367 563.493924 486.849647 
C 570.180457 470.706928 573.622209 453.404075 573.622209 435.931321 
" clip-path="url(#pff3927c7dd)" style="fill: none; stroke: #b0b0b0; stroke-width: 0.8; stroke-linecap: square"/>
     </g>
    </g>
    <g id="ytick_3">
     <g id="line2d_12">
      <path d="M 640.150209 435.931321 
C 640.150209 409.72219 634.987581 383.76791 624.957781 359.553831 
C 614.927981 335.339751 600.226063 313.336775 581.693408 294.804121 
C 563.160754 276.271467 541.157778 261.569548 516.943699 251.539748 
C 492.729619 241.509948 466.775339 236.347321 440.566209 236.347321 
C 414.357078 236.347321 388.402798 241.509948 364.188719 251.539748 
C 339.974639 261.569548 317.971663 276.271467 299.439009 294.804121 
C 280.906355 313.336775 266.204436 335.339751 256.174636 359.553831 
C 246.144836 383.76791 240.982209 409.72219 240.982209 435.931321 
C 240.982209 462.140451 246.144836 488.094731 256.174636 512.308811 
C 266.204436 536.52289 280.906355 558.525866 299.439009 577.05852 
C 317.971663 595.591175 339.974639 610.293093 364.188719 620.322893 
C 388.402798 630.352693 414.357078 635.515321 440.566209 635.515321 
C 466.775339 635.515321 492.729619 630.352693 516.943699 620.322893 
C 541.157778 610.293093 563.160754 595.591175 581.693408 577.05852 
C 600.226063 558.525866 614.927981 536.52289 624.957781 512.308811 
C 634.987581 488.094731 640.150209 462.140451 640.150209 435.931321 
" clip-path="url(#pff3927c7dd)" style="fill: none; stroke: #b0b0b0; stroke-width: 0.8; stroke-linecap: square"/>
     </g>
    </g>
    <g id="ytick_4">
     <g id="line2d_13">
      <path d="M 706.678209 435.931321 
C 706.678209 400.985813 699.794706 366.380106 686.421639 334.094667 
C 673.048572 301.809228 653.446014 272.471926 628.735808 247.761721 
C 604.025603 223.051515 574.688302 203.448957 542.402862 190.075891 
C 510.117423 176.702824 475.511716 169.819321 440.566209 169.819321 
C 405.620701 169.819321 371.014994 176.702824 338.729555 190.075891 
C 306.444116 203.448957 277.106814 223.051515 252.396609 247.761721 
C 227.686403 272.471926 208.083845 301.809228 194.710779 334.094667 
C 181.337712 366.380106 174.454209 400.985813 174.454209 435.931321 
C 174.454209 470.876828 181.337712 505.482535 194.710779 537.767974 
C 208.083845 570.053414 227.686403 599.390715 252.396609 624.10092 
C 277.106814 648.811126 306.444116 668.413684 338.729555 681.786751 
C 371.014994 695.159818 405.620701 702.043321 440.566209 702.043321 
C 475.511716 702.043321 510.117423 695.159818 542.402862 681.786751 
C 574.688302 668.413684 604.025603 648.811126 628.735808 624.10092 
C 653.446014 599.390715 673.048572 570.053414 686.421639 537.767974 
C 699.794706 505.482535 706.678209 470.876828 706.678209 435.931321 
" clip-path="url(#pff3927c7dd)" style="fill: none; stroke: #b0b0b0; stroke-width: 0.8; stroke-linecap: square"/>
     </g>
    </g>
    <g id="ytick_5">
     <g id="line2d_14">
      <path d="M 773.206209 435.931321 
C 773.206209 392.249436 764.60183 348.992303 747.885496 308.635504 
C 731.169163 268.278705 706.665965 231.607078 675.778208 200.719321 
C 644.890452 169.831564 608.218825 145.328367 567.862026 128.612033 
C 527.505227 111.895699 484.248093 103.291321 440.566209 103.291321 
C 396.884324 103.291321 353.627191 111.895699 313.270392 128.612033 
C 272.913593 145.328367 236.241966 169.831564 205.354209 200.719321 
C 174.466452 231.607078 149.963255 268.278705 133.246921 308.635504 
C 116.530587 348.992303 107.926209 392.249436 107.926209 435.931321 
C 107.926209 479.613205 116.530587 522.870339 133.246921 563.227138 
C 149.963255 603.583937 174.466452 640.255564 205.354209 671.14332 
C 236.241966 702.031077 272.913593 726.534275 313.270392 743.250608 
C 353.627191 759.966942 396.884324 768.571321 440.566209 768.571321 
C 484.248093 768.571321 527.505227 759.966942 567.862026 743.250608 
C 608.218825 726.534275 644.890452 702.031077 675.778208 671.14332 
C 706.665965 640.255564 731.169163 603.583937 747.885496 563.227138 
C 764.60183 522.870339 773.206209 479.613205 773.206209 435.931321 
" clip-path="url(#pff3927c7dd)" style="fill: none; stroke: #b0b0b0; stroke-width: 0.8; stroke-linecap: square"/>
     </g>
    </g>
   </g>
   <g id="line2d_15">
    <path d="M 593.827931 435.931321 
L 589.745325 310.755179 
L 471.213847 262.119928 
L 307.864327 206.084919 
L 235.399503 361.256747 
L 269.513211 498.18952 
L 293.743807 690.235179 
L 473.214658 621.089876 
L 631.582505 596.213025 
L 593.827931 435.931321 
" clip-path="url(#pff3927c7dd)" style="fill: none; stroke-dasharray: 2,3.3; stroke-dashoffset: 0; stroke: #a56eff; stroke-width: 2"/>
    <defs>
     <path id="mad26f9ed55" d="M 0 3 
C 0.795609 3 1.55874 2.683901 2.12132 2.12132 
C 2.683901 1.55874 3 0.795609 3 0 
C 3 -0.795609 2.683901 -1.55874 2.12132 -2.12132 
C 1.55874 -2.683901 0.795609 -3 0 -3 
C -0.795609 -3 -1.55874 -2.683901 -2.12132 -2.12132 
C -2.683901 -1.55874 -3 -0.795609 -3 0 
C -3 0.795609 -2.683901 1.55874 -2.12132 2.12132 
C -1.55874 2.683901 -0.795609 3 0 3 
z
" style="stroke: #a56eff"/>
    </defs>
    <g clip-path="url(#pff3927c7dd)">
     <use xlink:href="#mad26f9ed55" x="593.827931" y="435.931321" style="fill: #a56eff; stroke: #a56eff"/>
     <use xlink:href="#mad26f9ed55" x="589.745325" y="310.755179" style="fill: #a56eff; stroke: #a56eff"/>
     <use xlink:href="#mad26f9ed55" x="471.213847" y="262.119928" style="fill: #a56eff; stroke: #a56eff"/>
     <use xlink:href="#mad26f9ed55" x="307.864327" y="206.084919" style="fill: #a56eff; stroke: #a56eff"/>
     <use xlink:href="#mad26f9ed55" x="235.399503" y="361.256747" style="fill: #a56eff; stroke: #a56eff"/>
     <use xlink:href="#mad26f9ed55" x="269.513211" y="498.18952" style="fill: #a56eff; stroke: #a56eff"/>
     <use xlink:href="#mad26f9ed55" x="293.743807" y="690.235179" style="fill: #a56eff; stroke: #a56eff"/>
     <use xlink:href="#mad26f9ed55" x="473.214658" y="621.089876" style="fill: #a56eff; stroke: #a56eff"/>
     <use xlink:href="#mad26f9ed55" x="631.582505" y="596.213025" style="fill: #a56eff; stroke: #a56eff"/>
     <use xlink:href="#mad26f9ed55" x="593.827931" y="435.931321" style="fill: #a56eff; stroke: #a56eff"/>
    </g>
   </g>
   <g id="line2d_16">
    <path d="M 633.097834 435.931321 
L 652.608408 258.00679 
L 481.386842 204.426004 
L 330.888674 245.964258 
L 309.860832 388.358454 
L 292.431842 489.847821 
L 302.9671 674.259969 
L 461.886247 556.843266 
L 653.16954 614.326697 
L 633.097834 435.931321 
" clip-path="url(#pff3927c7dd)" style="fill: none; stroke-dasharray: 2,3.3; stroke-dashoffset: 0; stroke: #009d9a; stroke-width: 2"/>
    <defs>
     <path id="ma22c557fa2" d="M 0 3 
C 0.795609 3 1.55874 2.683901 2.12132 2.12132 
C 2.683901 1.55874 3 0.795609 3 0 
C 3 -0.795609 2.683901 -1.55874 2.12132 -2.12132 
C 1.55874 -2.683901 0.795609 -3 0 -3 
C -0.795609 -3 -1.55874 -2.683901 -2.12132 -2.12132 
C -2.683901 -1.55874 -3 -0.795609 -3 0 
C -3 0.795609 -2.683901 1.55874 -2.12132 2.12132 
C -1.55874 2.683901 -0.795609 3 0 3 
z
" style="stroke: #009d9a"/>
    </defs>
    <g clip-path="url(#pff3927c7dd)">
     <use xlink:href="#ma22c557fa2" x="633.097834" y="435.931321" style="fill: #009d9a; stroke: #009d9a"/>
     <use xlink:href="#ma22c557fa2" x="652.608408" y="258.00679" style="fill: #009d9a; stroke: #009d9a"/>
     <use xlink:href="#ma22c557fa2" x="481.386842" y="204.426004" style="fill: #009d9a; stroke: #009d9a"/>
     <use xlink:href="#ma22c557fa2" x="330.888674" y="245.964258" style="fill: #009d9a; stroke: #009d9a"/>
     <use xlink:href="#ma22c557fa2" x="309.860832" y="388.358454" style="fill: #009d9a; stroke: #009d9a"/>
     <use xlink:href="#ma22c557fa2" x="292.431842" y="489.847821" style="fill: #009d9a; stroke: #009d9a"/>
     <use xlink:href="#ma22c557fa2" x="302.9671" y="674.259969" style="fill: #009d9a; stroke: #009d9a"/>
     <use xlink:href="#ma22c557fa2" x="461.886247" y="556.843266" style="fill: #009d9a; stroke: #009d9a"/>
     <use xlink:href="#ma22c557fa2" x="653.16954" y="614.326697" style="fill: #009d9a; stroke: #009d9a"/>
     <use xlink:href="#ma22c557fa2" x="633.097834" y="435.931321" style="fill: #009d9a; stroke: #009d9a"/>
    </g>
   </g>
   <g id="line2d_17">
    <path d="M 577.717201 435.931321 
L 549.473663 344.547116 
L 469.279545 273.089899 
L 318.669048 224.799246 
L 382.920755 414.950091 
L 247.889982 506.059732 
L 303.634575 673.103868 
L 474.773133 629.928426 
L 570.059458 544.589058 
L 577.717201 435.931321 
" clip-path="url(#pff3927c7dd)" style="fill: none; stroke-dasharray: 2,3.3; stroke-dashoffset: 0; stroke: #9f1853; stroke-width: 2"/>
    <defs>
     <path id="m5b664f69a6" d="M 0 3 
C 0.795609 3 1.55874 2.683901 2.12132 2.12132 
C 2.683901 1.55874 3 0.795609 3 0 
C 3 -0.795609 2.683901 -1.55874 2.12132 -2.12132 
C 1.55874 -2.683901 0.795609 -3 0 -3 
C -0.795609 -3 -1.55874 -2.683901 -2.12132 -2.12132 
C -2.683901 -1.55874 -3 -0.795609 -3 0 
C -3 0.795609 -2.683901 1.55874 -2.12132 2.12132 
C -1.55874 2.683901 -0.795609 3 0 3 
z
" style="stroke: #9f1853"/>
    </defs>
    <g clip-path="url(#pff3927c7dd)">
     <use xlink:href="#m5b664f69a6" x="577.717201" y="435.931321" style="fill: #9f1853; stroke: #9f1853"/>
     <use xlink:href="#m5b664f69a6" x="549.473663" y="344.547116" style="fill: #9f1853; stroke: #9f1853"/>
     <use xlink:href="#m5b664f69a6" x="469.279545" y="273.089899" style="fill: #9f1853; stroke: #9f1853"/>
     <use xlink:href="#m5b664f69a6" x="318.669048" y="224.799246" style="fill: #9f1853; stroke: #9f1853"/>
     <use xlink:href="#m5b664f69a6" x="382.920755" y="414.950091" style="fill: #9f1853; stroke: #9f1853"/>
     <use xlink:href="#m5b664f69a6" x="247.889982" y="506.059732" style="fill: #9f1853; stroke: #9f1853"/>
     <use xlink:href="#m5b664f69a6" x="303.634575" y="673.103868" style="fill: #9f1853; stroke: #9f1853"/>
     <use xlink:href="#m5b664f69a6" x="474.773133" y="629.928426" style="fill: #9f1853; stroke: #9f1853"/>
     <use xlink:href="#m5b664f69a6" x="570.059458" y="544.589058" style="fill: #9f1853; stroke: #9f1853"/>
     <use xlink:href="#m5b664f69a6" x="577.717201" y="435.931321" style="fill: #9f1853; stroke: #9f1853"/>
    </g>
   </g>
   <g id="line2d_18">
    <path d="M 545.495742 435.931321 
L 629.280311 277.581387 
L 482.246532 199.550461 
L 378.866784 329.064782 
L 261.932775 370.914068 
L 379.921222 458.004291 
L 404.726713 498.007148 
L 493.317675 735.099755 
L 540.916962 520.1356 
L 545.495742 435.931321 
" clip-path="url(#pff3927c7dd)" style="fill: none; stroke-dasharray: 2,3.3; stroke-dashoffset: 0; stroke: #003a6d; stroke-width: 2"/>
    <defs>
     <path id="m5cc0256b00" d="M 0 3 
C 0.795609 3 1.55874 2.683901 2.12132 2.12132 
C 2.683901 1.55874 3 0.795609 3 0 
C 3 -0.795609 2.683901 -1.55874 2.12132 -2.12132 
C 1.55874 -2.683901 0.795609 -3 0 -3 
C -0.795609 -3 -1.55874 -2.683901 -2.12132 -2.12132 
C -2.683901 -1.55874 -3 -0.795609 -3 0 
C -3 0.795609 -2.683901 1.55874 -2.12132 2.12132 
C -1.55874 2.683901 -0.795609 3 0 3 
z
" style="stroke: #003a6d"/>
    </defs>
    <g clip-path="url(#pff3927c7dd)">
     <use xlink:href="#m5cc0256b00" x="545.495742" y="435.931321" style="fill: #003a6d; stroke: #003a6d"/>
     <use xlink:href="#m5cc0256b00" x="629.280311" y="277.581387" style="fill: #003a6d; stroke: #003a6d"/>
     <use xlink:href="#m5cc0256b00" x="482.246532" y="199.550461" style="fill: #003a6d; stroke: #003a6d"/>
     <use xlink:href="#m5cc0256b00" x="378.866784" y="329.064782" style="fill: #003a6d; stroke: #003a6d"/>
     <use xlink:href="#m5cc0256b00" x="261.932775" y="370.914068" style="fill: #003a6d; stroke: #003a6d"/>
     <use xlink:href="#m5cc0256b00" x="379.921222" y="458.004291" style="fill: #003a6d; stroke: #003a6d"/>
     <use xlink:href="#m5cc0256b00" x="404.726713" y="498.007148" style="fill: #003a6d; stroke: #003a6d"/>
     <use xlink:href="#m5cc0256b00" x="493.317675" y="735.099755" style="fill: #003a6d; stroke: #003a6d"/>
     <use xlink:href="#m5cc0256b00" x="540.916962" y="520.1356" style="fill: #003a6d; stroke: #003a6d"/>
     <use xlink:href="#m5cc0256b00" x="545.495742" y="435.931321" style="fill: #003a6d; stroke: #003a6d"/>
    </g>
   </g>
   <g id="line2d_19">
    <path d="M 544.89159 435.931321 
L 579.431851 319.409211 
L 479.094336 217.427451 
L 332.946716 249.528892 
L 324.715727 393.765194 
L 238.423591 509.505217 
L 304.787486 671.106966 
L 449.104133 484.352294 
L 622.08421 588.243009 
L 544.89159 435.931321 
" clip-path="url(#pff3927c7dd)" style="fill: none; stroke-dasharray: 2,3.3; stroke-dashoffset: 0; stroke: #707070; stroke-width: 2"/>
    <defs>
     <path id="maf2e639a5f" d="M 0 3 
C 0.795609 3 1.55874 2.683901 2.12132 2.12132 
C 2.683901 1.55874 3 0.795609 3 0 
C 3 -0.795609 2.683901 -1.55874 2.12132 -2.12132 
C 1.55874 -2.683901 0.795609 -3 0 -3 
C -0.795609 -3 -1.55874 -2.683901 -2.12132 -2.12132 
C -2.683901 -1.55874 -3 -0.795609 -3 0 
C -3 0.795609 -2.683901 1.55874 -2.12132 2.12132 
C -1.55874 2.683901 -0.795609 3 0 3 
z
" style="stroke: #707070"/>
    </defs>
    <g clip-path="url(#pff3927c7dd)">
     <use xlink:href="#maf2e639a5f" x="544.89159" y="435.931321" style="fill: #707070; stroke: #707070"/>
     <use xlink:href="#maf2e639a5f" x="579.431851" y="319.409211" style="fill: #707070; stroke: #707070"/>
     <use xlink:href="#maf2e639a5f" x="479.094336" y="217.427451" style="fill: #707070; stroke: #707070"/>
     <use xlink:href="#maf2e639a5f" x="332.946716" y="249.528892" style="fill: #707070; stroke: #707070"/>
     <use xlink:href="#maf2e639a5f" x="324.715727" y="393.765194" style="fill: #707070; stroke: #707070"/>
     <use xlink:href="#maf2e639a5f" x="238.423591" y="509.505217" style="fill: #707070; stroke: #707070"/>
     <use xlink:href="#maf2e639a5f" x="304.787486" y="671.106966" style="fill: #707070; stroke: #707070"/>
     <use xlink:href="#maf2e639a5f" x="449.104133" y="484.352294" style="fill: #707070; stroke: #707070"/>
     <use xlink:href="#maf2e639a5f" x="622.08421" y="588.243009" style="fill: #707070; stroke: #707070"/>
     <use xlink:href="#maf2e639a5f" x="544.89159" y="435.931321" style="fill: #707070; stroke: #707070"/>
    </g>
   </g>
   <g id="line2d_20">
    <path d="M 723.116535 435.931321 
L 622.404661 283.350742 
L 488.909128 161.765004 
L 307.864327 206.084919 
L 216.994382 354.55783 
L 187.902958 527.893223 
L 295.382155 687.397478 
L 483.54774 679.691696 
L 622.515951 588.605282 
L 723.116535 435.931321 
" clip-path="url(#pff3927c7dd)" style="fill: none; stroke-dasharray: 12.8,3.2,2,3.2; stroke-dashoffset: 0; stroke: #0f62fe; stroke-width: 2"/>
    <defs>
     <path id="m8034b3d087" d="M 0 3 
C 0.795609 3 1.55874 2.683901 2.12132 2.12132 
C 2.683901 1.55874 3 0.795609 3 0 
C 3 -0.795609 2.683901 -1.55874 2.12132 -2.12132 
C 1.55874 -2.683901 0.795609 -3 0 -3 
C -0.795609 -3 -1.55874 -2.683901 -2.12132 -2.12132 
C -2.683901 -1.55874 -3 -0.795609 -3 0 
C -3 0.795609 -2.683901 1.55874 -2.12132 2.12132 
C -1.55874 2.683901 -0.795609 3 0 3 
z
" style="stroke: #0f62fe"/>
    </defs>
    <g clip-path="url(#pff3927c7dd)">
     <use xlink:href="#m8034b3d087" x="723.116535" y="435.931321" style="fill: #0f62fe; stroke: #0f62fe"/>
     <use xlink:href="#m8034b3d087" x="622.404661" y="283.350742" style="fill: #0f62fe; stroke: #0f62fe"/>
     <use xlink:href="#m8034b3d087" x="488.909128" y="161.765004" style="fill: #0f62fe; stroke: #0f62fe"/>
     <use xlink:href="#m8034b3d087" x="307.864327" y="206.084919" style="fill: #0f62fe; stroke: #0f62fe"/>
     <use xlink:href="#m8034b3d087" x="216.994382" y="354.55783" style="fill: #0f62fe; stroke: #0f62fe"/>
     <use xlink:href="#m8034b3d087" x="187.902958" y="527.893223" style="fill: #0f62fe; stroke: #0f62fe"/>
     <use xlink:href="#m8034b3d087" x="295.382155" y="687.397478" style="fill: #0f62fe; stroke: #0f62fe"/>
     <use xlink:href="#m8034b3d087" x="483.54774" y="679.691696" style="fill: #0f62fe; stroke: #0f62fe"/>
     <use xlink:href="#m8034b3d087" x="622.515951" y="588.605282" style="fill: #0f62fe; stroke: #0f62fe"/>
     <use xlink:href="#m8034b3d087" x="723.116535" y="435.931321" style="fill: #0f62fe; stroke: #0f62fe"/>
    </g>
   </g>
   <g id="line2d_21">
    <path d="M 707.811342 435.931321 
L 606.934449 296.331791 
L 484.252475 188.174194 
L 301.304317 194.722649 
L 160.471039 333.985016 
L 161.795649 537.395507 
L 294.411282 689.079079 
L 488.341033 706.875811 
L 622.947692 588.967556 
L 707.811342 435.931321 
" clip-path="url(#pff3927c7dd)" style="fill: none; stroke: #0f62fe; stroke-width: 2; stroke-linecap: square"/>
    <g clip-path="url(#pff3927c7dd)">
     <use xlink:href="#m8034b3d087" x="707.811342" y="435.931321" style="fill: #0f62fe; stroke: #0f62fe"/>
     <use xlink:href="#m8034b3d087" x="606.934449" y="296.331791" style="fill: #0f62fe; stroke: #0f62fe"/>
     <use xlink:href="#m8034b3d087" x="484.252475" y="188.174194" style="fill: #0f62fe; stroke: #0f62fe"/>
     <use xlink:href="#m8034b3d087" x="301.304317" y="194.722649" style="fill: #0f62fe; stroke: #0f62fe"/>
     <use xlink:href="#m8034b3d087" x="160.471039" y="333.985016" style="fill: #0f62fe; stroke: #0f62fe"/>
     <use xlink:href="#m8034b3d087" x="161.795649" y="537.395507" style="fill: #0f62fe; stroke: #0f62fe"/>
     <use xlink:href="#m8034b3d087" x="294.411282" y="689.079079" style="fill: #0f62fe; stroke: #0f62fe"/>
     <use xlink:href="#m8034b3d087" x="488.341033" y="706.875811" style="fill: #0f62fe; stroke: #0f62fe"/>
     <use xlink:href="#m8034b3d087" x="622.947692" y="588.967556" style="fill: #0f62fe; stroke: #0f62fe"/>
     <use xlink:href="#m8034b3d087" x="707.811342" y="435.931321" style="fill: #0f62fe; stroke: #0f62fe"/>
    </g>
   </g>
   <g id="patch_10">
    <path d="M 773.206209 435.931321 
C 773.206209 392.249436 764.60183 348.992303 747.885496 308.635504 
C 731.169163 268.278705 706.665965 231.607078 675.778208 200.719321 
C 644.890452 169.831564 608.218825 145.328367 567.862026 128.612033 
C 527.505227 111.895699 484.248093 103.291321 440.566209 103.291321 
C 396.884324 103.291321 353.627191 111.895699 313.270392 128.612033 
C 272.913593 145.328367 236.241966 169.831564 205.354209 200.719321 
C 174.466452 231.607078 149.963255 268.278705 133.246921 308.635504 
C 116.530587 348.992303 107.926209 392.249436 107.926209 435.931321 
C 107.926209 479.613205 116.530587 522.870339 133.246921 563.227138 
C 149.963255 603.583937 174.466452 640.255564 205.354209 671.14332 
C 236.241966 702.031077 272.913593 726.534275 313.270392 743.250608 
C 353.627191 759.966942 396.884324 768.571321 440.566209 768.571321 
C 484.248093 768.571321 527.505227 759.966942 567.862026 743.250608 
C 608.218825 726.534275 644.890452 702.031077 675.778208 671.14332 
C 706.665965 640.255564 731.169163 603.583937 747.885496 563.227138 
C 764.60183 522.870339 773.206209 479.613205 773.206209 435.931321 
" style="fill: none; stroke: #000000; stroke-width: 0.8; stroke-linejoin: miter; stroke-linecap: square"/>
   </g>
   <g id="legend_1">
    <g id="line2d_22">
     <path d="M 958.628334 338.995321 
L 986.628334 338.995321 
L 1014.628334 338.995321 
" style="fill: none; stroke-dasharray: 2,3.3; stroke-dashoffset: 0; stroke: #a56eff; stroke-width: 2"/>
     <g>
      <use xlink:href="#mad26f9ed55" x="986.628334" y="338.995321" style="fill: #a56eff; stroke: #a56eff"/>
     </g>
    </g>
    <g id="text_10">
     <!-- CROMA -->
     <g transform="translate(1037.028334 348.795321) scale(0.28 -0.28)">
      <defs>
       <path id="IBMPlexSans-Regular-52" d="M 1133 1920 
L 1133 0 
L 595 0 
L 595 4467 
L 2374 4467 
Q 2765 4467 3043 4320 
Q 3322 4173 3472 3891 
Q 3622 3610 3622 3200 
Q 3622 2714 3392 2394 
Q 3162 2074 2726 1971 
L 3750 0 
L 3142 0 
L 2176 1920 
L 1133 1920 
z
M 1133 2381 
L 2374 2381 
Q 2586 2381 2736 2454 
Q 2886 2528 2966 2672 
Q 3046 2816 3046 3021 
L 3046 3354 
Q 3046 3558 2966 3702 
Q 2886 3846 2736 3920 
Q 2586 3994 2374 3994 
L 1133 3994 
L 1133 2381 
z
" transform="scale(0.015625)"/>
      </defs>
      <use xlink:href="#IBMPlexSans-Regular-43"/>
      <use xlink:href="#IBMPlexSans-Regular-52" transform="translate(62.099991 0)"/>
      <use xlink:href="#IBMPlexSans-Regular-4f" transform="translate(126.099976 0)"/>
      <use xlink:href="#IBMPlexSans-Regular-4d" transform="translate(196.899963 0)"/>
      <use xlink:href="#IBMPlexSans-Regular-41" transform="translate(278.099945 0)"/>
     </g>
    </g>
    <g id="line2d_23">
     <path d="M 958.628334 379.315321 
L 986.628334 379.315321 
L 1014.628334 379.315321 
" style="fill: none; stroke-dasharray: 2,3.3; stroke-dashoffset: 0; stroke: #009d9a; stroke-width: 2"/>
     <g>
      <use xlink:href="#ma22c557fa2" x="986.628334" y="379.315321" style="fill: #009d9a; stroke: #009d9a"/>
     </g>
    </g>
    <g id="text_11">
     <!-- DOFA -->
     <g transform="translate(1037.028334 389.115321) scale(0.28 -0.28)">
      <use xlink:href="#IBMPlexSans-Regular-44"/>
      <use xlink:href="#IBMPlexSans-Regular-4f" transform="translate(67.099991 0)"/>
      <use xlink:href="#IBMPlexSans-Regular-46" transform="translate(137.899979 0)"/>
      <use xlink:href="#IBMPlexSans-Regular-41" transform="translate(193.799973 0)"/>
     </g>
    </g>
    <g id="line2d_24">
     <path d="M 958.628334 419.635321 
L 986.628334 419.635321 
L 1014.628334 419.635321 
" style="fill: none; stroke-dasharray: 2,3.3; stroke-dashoffset: 0; stroke: #9f1853; stroke-width: 2"/>
     <g>
      <use xlink:href="#m5b664f69a6" x="986.628334" y="419.635321" style="fill: #9f1853; stroke: #9f1853"/>
     </g>
    </g>
    <g id="text_12">
     <!-- SSL4EO-S12-MoCo -->
     <g transform="translate(1037.028334 429.435321) scale(0.28 -0.28)">
      <defs>
       <path id="IBMPlexSans-Regular-4c" d="M 3034 0 
L 595 0 
L 595 4467 
L 1133 4467 
L 1133 474 
L 3034 474 
L 3034 0 
z
" transform="scale(0.015625)"/>
      </defs>
      <use xlink:href="#IBMPlexSans-Regular-53"/>
      <use xlink:href="#IBMPlexSans-Regular-53" transform="translate(58.099991 0)"/>
      <use xlink:href="#IBMPlexSans-Regular-4c" transform="translate(116.199982 0)"/>
      <use xlink:href="#IBMPlexSans-Regular-34" transform="translate(166.299973 0)"/>
      <use xlink:href="#IBMPlexSans-Regular-45" transform="translate(226.299957 0)"/>
      <use xlink:href="#IBMPlexSans-Regular-4f" transform="translate(284.599945 0)"/>
      <use xlink:href="#IBMPlexSans-Regular-2d" transform="translate(355.399933 0)"/>
      <use xlink:href="#IBMPlexSans-Regular-53" transform="translate(395.299927 0)"/>
      <use xlink:href="#IBMPlexSans-Regular-31" transform="translate(453.399918 0)"/>
      <use xlink:href="#IBMPlexSans-Regular-32" transform="translate(513.399902 0)"/>
      <use xlink:href="#IBMPlexSans-Regular-2d" transform="translate(573.399887 0)"/>
      <use xlink:href="#IBMPlexSans-Regular-4d" transform="translate(613.299881 0)"/>
      <use xlink:href="#IBMPlexSans-Regular-6f" transform="translate(694.499863 0)"/>
      <use xlink:href="#IBMPlexSans-Regular-43" transform="translate(750.499847 0)"/>
      <use xlink:href="#IBMPlexSans-Regular-6f" transform="translate(812.599838 0)"/>
     </g>
    </g>
    <g id="line2d_25">
     <path d="M 958.628334 459.955321 
L 986.628334 459.955321 
L 1014.628334 459.955321 
" style="fill: none; stroke-dasharray: 2,3.3; stroke-dashoffset: 0; stroke: #003a6d; stroke-width: 2"/>
     <g>
      <use xlink:href="#m5cc0256b00" x="986.628334" y="459.955321" style="fill: #003a6d; stroke: #003a6d"/>
     </g>
    </g>
    <g id="text_13">
     <!-- GFM-Swin -->
     <g transform="translate(1037.028334 469.755321) scale(0.28 -0.28)">
      <defs>
       <path id="IBMPlexSans-Regular-47" d="M 3488 0 
L 3488 653 
L 3469 653 
Q 3386 339 3062 131 
Q 2739 -77 2227 -77 
Q 1683 -77 1264 188 
Q 845 454 608 969 
Q 371 1485 371 2234 
Q 371 2976 608 3491 
Q 845 4006 1273 4275 
Q 1702 4544 2272 4544 
Q 2874 4544 3277 4272 
Q 3680 4000 3898 3565 
L 3456 3296 
Q 3302 3654 2998 3859 
Q 2694 4064 2272 4064 
Q 1882 4064 1581 3881 
Q 1280 3699 1113 3369 
Q 947 3040 947 2598 
L 947 1875 
Q 947 1434 1113 1104 
Q 1280 774 1590 588 
Q 1901 403 2323 403 
Q 2637 403 2893 512 
Q 3149 621 3305 838 
Q 3462 1056 3462 1382 
L 3462 1824 
L 2477 1824 
L 2477 2298 
L 3987 2298 
L 3987 0 
L 3488 0 
z
" transform="scale(0.015625)"/>
       <path id="IBMPlexSans-Regular-77" d="M 1082 0 
L 198 3302 
L 698 3302 
L 1050 1875 
L 1402 429 
L 1414 429 
L 1818 1875 
L 2234 3302 
L 2688 3302 
L 3117 1875 
L 3526 429 
L 3539 429 
L 3878 1875 
L 4237 3302 
L 4717 3302 
L 3840 0 
L 3206 0 
L 2746 1587 
L 2458 2592 
L 2445 2592 
L 2163 1587 
L 1702 0 
L 1082 0 
z
" transform="scale(0.015625)"/>
      </defs>
      <use xlink:href="#IBMPlexSans-Regular-47"/>
      <use xlink:href="#IBMPlexSans-Regular-46" transform="translate(69.499985 0)"/>
      <use xlink:href="#IBMPlexSans-Regular-4d" transform="translate(125.399979 0)"/>
      <use xlink:href="#IBMPlexSans-Regular-2d" transform="translate(206.59996 0)"/>
      <use xlink:href="#IBMPlexSans-Regular-53" transform="translate(246.499954 0)"/>
      <use xlink:href="#IBMPlexSans-Regular-77" transform="translate(304.599945 0)"/>
      <use xlink:href="#IBMPlexSans-Regular-69" transform="translate(381.399933 0)"/>
      <use xlink:href="#IBMPlexSans-Regular-6e" transform="translate(406.399918 0)"/>
     </g>
    </g>
    <g id="line2d_26">
     <path d="M 958.628334 500.275321 
L 986.628334 500.275321 
L 1014.628334 500.275321 
" style="fill: none; stroke-dasharray: 2,3.3; stroke-dashoffset: 0; stroke: #707070; stroke-width: 2"/>
     <g>
      <use xlink:href="#maf2e639a5f" x="986.628334" y="500.275321" style="fill: #707070; stroke: #707070"/>
     </g>
    </g>
    <g id="text_14">
     <!-- SpectralGPT -->
     <g transform="translate(1037.028334 510.075321) scale(0.28 -0.28)">
      <use xlink:href="#IBMPlexSans-Regular-53"/>
      <use xlink:href="#IBMPlexSans-Regular-70" transform="translate(58.099991 0)"/>
      <use xlink:href="#IBMPlexSans-Regular-65" transform="translate(116.099976 0)"/>
      <use xlink:href="#IBMPlexSans-Regular-63" transform="translate(170.999969 0)"/>
      <use xlink:href="#IBMPlexSans-Regular-74" transform="translate(221.299957 0)"/>
      <use xlink:href="#IBMPlexSans-Regular-72" transform="translate(256.399948 0)"/>
      <use xlink:href="#IBMPlexSans-Regular-61" transform="translate(293.099945 0)"/>
      <use xlink:href="#IBMPlexSans-Regular-6c" transform="translate(346.499939 0)"/>
      <use xlink:href="#IBMPlexSans-Regular-47" transform="translate(373.699936 0)"/>
      <use xlink:href="#IBMPlexSans-Regular-50" transform="translate(443.199921 0)"/>
      <use xlink:href="#IBMPlexSans-Regular-54" transform="translate(503.799911 0)"/>
     </g>
    </g>
    <g id="line2d_27">
     <path d="M 958.628334 540.595321 
L 986.628334 540.595321 
L 1014.628334 540.595321 
" style="fill: none; stroke-dasharray: 12.8,3.2,2,3.2; stroke-dashoffset: 0; stroke: #0f62fe; stroke-width: 2"/>
     <g>
      <use xlink:href="#m8034b3d087" x="986.628334" y="540.595321" style="fill: #0f62fe; stroke: #0f62fe"/>
     </g>
    </g>
    <g id="text_15">
     <!-- TerraMindv1-B -->
     <g transform="translate(1037.028334 550.395321) scale(0.28 -0.28)">
      <use xlink:href="#IBMPlexSans-Regular-54"/>
      <use xlink:href="#IBMPlexSans-Regular-65" transform="translate(57.199997 0)"/>
      <use xlink:href="#IBMPlexSans-Regular-72" transform="translate(112.099991 0)"/>
      <use xlink:href="#IBMPlexSans-Regular-72" transform="translate(148.799988 0)"/>
      <use xlink:href="#IBMPlexSans-Regular-61" transform="translate(185.499985 0)"/>
      <use xlink:href="#IBMPlexSans-Regular-4d" transform="translate(238.899979 0)"/>
      <use xlink:href="#IBMPlexSans-Regular-69" transform="translate(320.09996 0)"/>
      <use xlink:href="#IBMPlexSans-Regular-6e" transform="translate(345.099945 0)"/>
      <use xlink:href="#IBMPlexSans-Regular-64" transform="translate(401.899933 0)"/>
      <use xlink:href="#IBMPlexSans-Regular-76" transform="translate(459.899918 0)"/>
      <use xlink:href="#IBMPlexSans-Regular-31" transform="translate(509.099915 0)"/>
      <use xlink:href="#IBMPlexSans-Regular-2d" transform="translate(569.099899 0)"/>
      <use xlink:href="#IBMPlexSans-Regular-42" transform="translate(608.999893 0)"/>
     </g>
    </g>
    <g id="line2d_28">
     <path d="M 958.628334 580.915321 
L 986.628334 580.915321 
L 1014.628334 580.915321 
" style="fill: none; stroke: #0f62fe; stroke-width: 2; stroke-linecap: square"/>
     <g>
      <use xlink:href="#m8034b3d087" x="986.628334" y="580.915321" style="fill: #0f62fe; stroke: #0f62fe"/>
     </g>
    </g>
    <g id="text_16">
     <!-- TerraMindv1-L -->
     <g transform="translate(1037.028334 590.715321) scale(0.28 -0.28)">
      <use xlink:href="#IBMPlexSans-Regular-54"/>
      <use xlink:href="#IBMPlexSans-Regular-65" transform="translate(57.199997 0)"/>
      <use xlink:href="#IBMPlexSans-Regular-72" transform="translate(112.099991 0)"/>
      <use xlink:href="#IBMPlexSans-Regular-72" transform="translate(148.799988 0)"/>
      <use xlink:href="#IBMPlexSans-Regular-61" transform="translate(185.499985 0)"/>
      <use xlink:href="#IBMPlexSans-Regular-4d" transform="translate(238.899979 0)"/>
      <use xlink:href="#IBMPlexSans-Regular-69" transform="translate(320.09996 0)"/>
      <use xlink:href="#IBMPlexSans-Regular-6e" transform="translate(345.099945 0)"/>
      <use xlink:href="#IBMPlexSans-Regular-64" transform="translate(401.899933 0)"/>
      <use xlink:href="#IBMPlexSans-Regular-76" transform="translate(459.899918 0)"/>
      <use xlink:href="#IBMPlexSans-Regular-31" transform="translate(509.099915 0)"/>
      <use xlink:href="#IBMPlexSans-Regular-2d" transform="translate(569.099899 0)"/>
      <use xlink:href="#IBMPlexSans-Regular-4c" transform="translate(608.999893 0)"/>
     </g>
    </g>
   </g>
  </g>
 </g>
 <defs>
  <clipPath id="pff3927c7dd">
   <path d="M 773.206209 435.931321 
C 773.206209 392.249436 764.60183 348.992303 747.885496 308.635504 
C 731.169163 268.278705 706.665965 231.607078 675.778208 200.719321 
C 644.890452 169.831564 608.218825 145.328367 567.862026 128.612033 
C 527.505227 111.895699 484.248093 103.291321 440.566209 103.291321 
C 396.884324 103.291321 353.627191 111.895699 313.270392 128.612033 
C 272.913593 145.328367 236.241966 169.831564 205.354209 200.719321 
C 174.466452 231.607078 149.963255 268.278705 133.246921 308.635504 
C 116.530587 348.992303 107.926209 392.249436 107.926209 435.931321 
C 107.926209 479.613205 116.530587 522.870339 133.246921 563.227138 
C 149.963255 603.583937 174.466452 640.255564 205.354209 671.14332 
C 236.241966 702.031077 272.913593 726.534275 313.270392 743.250608 
C 353.627191 759.966942 396.884324 768.571321 440.566209 768.571321 
C 484.248093 768.571321 527.505227 759.966942 567.862026 743.250608 
C 608.218825 726.534275 644.890452 702.031077 675.778208 671.14332 
C 706.665965 640.255564 731.169163 603.583937 747.885496 563.227138 
C 764.60183 522.870339 773.206209 479.613205 773.206209 435.931321 
M 440.566209 435.931321 
C 440.566209 435.931321 440.566209 435.931321 440.566209 435.931321 
C 440.566209 435.931321 440.566209 435.931321 440.566209 435.931321 
C 440.566209 435.931321 440.566209 435.931321 440.566209 435.931321 
C 440.566209 435.931321 440.566209 435.931321 440.566209 435.931321 
C 440.566209 435.931321 440.566209 435.931321 440.566209 435.931321 
C 440.566209 435.931321 440.566209 435.931321 440.566209 435.931321 
C 440.566209 435.931321 440.566209 435.931321 440.566209 435.931321 
C 440.566209 435.931321 440.566209 435.931321 440.566209 435.931321 
C 440.566209 435.931321 440.566209 435.931321 440.566209 435.931321 
C 440.566209 435.931321 440.566209 435.931321 440.566209 435.931321 
C 440.566209 435.931321 440.566209 435.931321 440.566209 435.931321 
C 440.566209 435.931321 440.566209 435.931321 440.566209 435.931321 
C 440.566209 435.931321 440.566209 435.931321 440.566209 435.931321 
C 440.566209 435.931321 440.566209 435.931321 440.566209 435.931321 
C 440.566209 435.931321 440.566209 435.931321 440.566209 435.931321 
C 440.566209 435.931321 440.566209 435.931321 440.566209 435.931321 
z
"/>
  </clipPath>
 </defs>
</svg>
